<?xml version="1.0" encoding="UTF-8" standalone="no"?>
<svg
   viewBox="-100 -50 700 900"
   width="100%"
   height="100%"
   version="1.1"
   id="svg42"
   sodipodi:docname="grondplan.svg"
   inkscape:version="1.4.3 (0d15f75, 2025-12-25)"
   xmlns:inkscape="http://www.inkscape.org/namespaces/inkscape"
   xmlns:sodipodi="http://sodipodi.sourceforge.net/DTD/sodipodi-0.dtd"
   xmlns="http://www.w3.org/2000/svg"
   xmlns:svg="http://www.w3.org/2000/svg">
  <sodipodi:namedview
     id="namedview42"
     pagecolor="#ffffff"
     bordercolor="#000000"
     borderopacity="0.25"
     inkscape:showpageshadow="2"
     inkscape:pageopacity="0.0"
     inkscape:pagecheckerboard="0"
     inkscape:deskcolor="#d1d1d1"
     inkscape:zoom="3.9723686"
     inkscape:cx="369.04933"
     inkscape:cy="283.20634"
     inkscape:window-width="2560"
     inkscape:window-height="1566"
     inkscape:window-x="-11"
     inkscape:window-y="1789"
     inkscape:window-maximized="1"
     inkscape:current-layer="g26" />
  <defs
     id="defs2">
    <g
       id="col">
      <rect
         x="-12"
         y="-12"
         width="24"
         height="24"
         fill="#000"
         id="rect1" />
      <rect
         x="-4"
         y="-4"
         width="8"
         height="8"
         fill="#fff"
         stroke="#000"
         stroke-width="0.5"
         id="rect2" />
    </g>
    <circle
       id="stool"
       cx="0"
       cy="0"
       r="10"
       fill="#fff"
       stroke="#000"
       stroke-width="1.5" />
  </defs>
  <rect
     x="-100"
     y="-50"
     width="700"
     height="900"
     fill="#ffffff"
     id="rect3" />
  <rect
     x="450"
     y="100"
     width="150"
     height="600"
     fill="#eaddcf"
     id="rect4" />
  <g
     stroke="#999"
     stroke-width="1"
     stroke-dasharray="10 10"
     id="g15">
    <line
       x1="0"
       y1="-50"
       x2="0"
       y2="850"
       id="line4" />
    <line
       x1="150"
       y1="-50"
       x2="150"
       y2="850"
       id="line5" />
    <line
       x1="300"
       y1="-50"
       x2="300"
       y2="850"
       id="line6" />
    <line
       x1="450"
       y1="-50"
       x2="450"
       y2="850"
       id="line7" />
    <line
       x1="600"
       y1="-50"
       x2="600"
       y2="850"
       id="line8" />
    <line
       x1="-100"
       y1="-50"
       x2="600"
       y2="-50"
       id="line9" />
    <line
       x1="-100"
       y1="100"
       x2="600"
       y2="100"
       id="line10" />
    <line
       x1="-100"
       y1="250"
       x2="600"
       y2="250"
       id="line11" />
    <line
       x1="-100"
       y1="400"
       x2="600"
       y2="400"
       id="line12" />
    <line
       x1="-100"
       y1="550"
       x2="600"
       y2="550"
       id="line13" />
    <line
       x1="-100"
       y1="700"
       x2="600"
       y2="700"
       id="line14" />
    <line
       x1="-100"
       y1="850"
       x2="600"
       y2="850"
       id="line15" />
  </g>
  <g
     stroke="#000"
     stroke-width="6"
     fill="none"
     stroke-linecap="square"
     id="g22">
    <path
       d="M 150 100 L 300 100"
       id="path15" />
    <path
       d="M 370 100 L 450 100"
       id="path16" />
    <path
       d="M 450 100 L 450 700"
       id="path17" />
    <path
       d="M 300 700 L 450 700"
       id="path18" />
    <path
       d="M 150 100 A 350 350 0 0 0 300 700"
       id="path19" />
    <path
       d="M 450 100 L 600 100"
       id="path21" />
    <path
       d="M 450 700 L 600 700"
       id="path22" />
  </g>
  <g
     stroke="#000"
     stroke-width="1.5"
     id="g23">
    <line
       x1="300"
       y1="100"
       x2="300"
       y2="30"
       stroke-width="3"
       id="line22" />
    <path
       d="M 300 30 A 70 70 0 0 1 370 100"
       fill="none"
       stroke-dasharray="4 4"
       id="path23" />
  </g>
  <g
     id="g26">
    <rect
       x="380"
       y="150"
       width="50"
       height="180"
       fill="#f4f4f4"
       stroke="#000"
       stroke-width="2"
       id="rect23" />
    <line
       x1="400"
       y1="150"
       x2="400"
       y2="330"
       stroke="#000000"
       stroke-width="1"
       id="line23"
       style="display:inline" />
    <use
       href="#stool"
       x="360"
       y="175"
       id="use23"
       style="display:none" />
    <use
       href="#stool"
       x="360"
       y="220"
       id="use24"
       style="display:none" />
    <use
       href="#stool"
       x="360"
       y="265"
       id="use25"
       style="display:none" />
    <use
       href="#stool"
       x="360"
       y="310"
       id="use26"
       style="display:none" />
  </g>
  <g
     transform="translate(110, 170)"
     id="g34">
    <rect
       x="20"
       y="120"
       width="160"
       height="40"
       fill="#fff"
       stroke="#000"
       stroke-width="2"
       rx="2"
       id="rect26" />
    <rect
       x="20"
       y="20"
       width="40"
       height="100"
       fill="#fff"
       stroke="#000"
       stroke-width="2"
       rx="2"
       id="rect27" />
    <rect
       x="140"
       y="20"
       width="40"
       height="100"
       fill="#fff"
       stroke="#000"
       stroke-width="2"
       rx="2"
       id="rect28" />
    <circle
       cx="50"
       cy="180"
       r="10"
       fill="#ffffff"
       stroke="#000000"
       stroke-width="1.5"
       id="circle28"
       style="display:none" />
    <circle
       cx="100"
       cy="180"
       r="10"
       fill="#ffffff"
       stroke="#000000"
       stroke-width="1.5"
       id="circle29"
       style="display:none" />
    <circle
       cx="150"
       cy="180"
       r="10"
       fill="#ffffff"
       stroke="#000000"
       stroke-width="1.5"
       id="circle30"
       style="display:none" />
    <circle
       cx="0"
       cy="40"
       r="10"
       fill="#ffffff"
       stroke="#000000"
       stroke-width="1.5"
       id="circle31"
       style="display:none" />
    <circle
       cx="0"
       cy="90"
       r="10"
       fill="#ffffff"
       stroke="#000000"
       stroke-width="1.5"
       id="circle32"
       style="display:none" />
    <circle
       cx="200"
       cy="40"
       r="10"
       fill="#ffffff"
       stroke="#000000"
       stroke-width="1.5"
       id="circle33"
       style="display:none" />
    <circle
       cx="200"
       cy="90"
       r="10"
       fill="#ffffff"
       stroke="#000000"
       stroke-width="1.5"
       id="circle34"
       style="display:none" />
  </g>
  <g
     transform="translate(290, 520) scale(0.85) rotate(22)"
     id="g37">
    <path
       d="M -88 -121 A 150 150 0 1 0 88 -121 L 70 -97 A 120 120 0 1 1 -70 -97 Z"
       fill="#eaddcf"
       stroke="#000"
       stroke-width="1.5"
       id="path34" />
    <path
       d="M -70 -97 A 120 120 0 1 0 70 -97 L 53 -73 A 90 90 0 1 1 -53 -73 Z"
       fill="#dcc5ad"
       stroke="#000"
       stroke-width="1.5"
       id="path35" />
    <path
       d="M -53 -73 A 90 90 0 1 0 53 -73 L 35 -48 A 60 60 0 1 1 -35 -48 Z"
       fill="#cba889"
       stroke="#000"
       stroke-width="1.5"
       id="path36" />
    <path
       d="M -35 -48 A 60 60 0 1 0 35 -48"
       fill="none"
       stroke="#000"
       stroke-width="2"
       id="path37" />
  </g>
  <use
     href="#col"
     x="150"
     y="100"
     id="use37" />
  <use
     href="#col"
     x="450"
     y="100"
     id="use38" />
  <use
     href="#col"
     x="450"
     y="400"
     id="use39" />
  <use
     href="#col"
     x="300"
     y="700"
     id="use40" />
  <use
     href="#col"
     x="450"
     y="700"
     id="use41" />
  <use
     href="#col"
     x="36"
     y="400"
     id="use42" />
</svg>
