<?xml version="1.0" encoding="UTF-8" standalone="no"?>
<!DOCTYPE svg PUBLIC "-//W3C//DTD SVG 1.1//EN" "http://www.w3.org/Graphics/SVG/1.1/DTD/svg11.dtd">
<svg width="100%" height="100%" viewBox="0 0 385 385" version="1.1" xmlns="http://www.w3.org/2000/svg" xmlns:xlink="http://www.w3.org/1999/xlink" xml:space="preserve" xmlns:serif="http://www.serif.com/" style="fill-rule:evenodd;clip-rule:evenodd;stroke-linejoin:round;stroke-miterlimit:2;">
    <g transform="matrix(1,0,0,1,-34455.800888,-160.423729)">
        <g transform="matrix(1,0,0,1,0,632)">
            <g id="Logo" transform="matrix(0.869896,0,0,0.869896,2280.169572,-2460.149344)">
                <g id="Border" transform="matrix(2.568374,0,0,2.568374,-58529.926891,-4109.262111)">
                    <path d="M37276,2490C37323.465,2490 37362,2528.535 37362,2576C37362,2623.465 37323.465,2662 37276,2662C37228.535,2662 37190,2623.465 37190,2576C37190,2528.535 37228.535,2490 37276,2490ZM37276,2496.527C37232.138,2496.527 37196.527,2532.138 37196.527,2576C37196.527,2619.862 37232.138,2655.473 37276,2655.473C37319.862,2655.473 37355.473,2619.862 37355.473,2576C37355.473,2532.138 37319.862,2496.527 37276,2496.527Z" style="fill:white;"/>
                </g>
                <path id="Icon" d="M37270.564,2381.917C37305.654,2381.917 37334.083,2409.346 37334.083,2444.436L37334.083,2445.438C37334.083,2474.942 37313.967,2499.748 37286.702,2506.889C37297.489,2509.732 37307.437,2515.389 37315.461,2523.413C37327.385,2535.337 37334.083,2551.509 37334.083,2568.372L37334.083,2569.376C37334.083,2586.25 37327.392,2601.403 37315.461,2613.335C37303.537,2625.259 37287.365,2631.957 37270.502,2631.957L37087,2631.957C37086.276,2631.957 37085.604,2631.582 37085.225,2630.965C37084.846,2630.348 37084.814,2629.578 37085.142,2628.933L37121.107,2557.946L37093.955,2507.867C37093.622,2507.253 37093.619,2506.513 37093.947,2505.896L37121.302,2454.443L37084.163,2384.982C37083.818,2384.337 37083.837,2383.557 37084.213,2382.929C37084.589,2382.301 37085.268,2381.917 37086,2381.917L37270.564,2381.917ZM37125.29,2556.92L37125.324,2556.986C37125.324,2556.986 37145.806,2598.179 37155.524,2617.726C37158.59,2623.892 37164.883,2627.791 37171.769,2627.791C37172.895,2627.791 37174.021,2627.791 37175.102,2627.791C37179.942,2627.791 37184.365,2625.052 37186.523,2620.72C37196.979,2599.732 37227.807,2537.848 37239.059,2515.261C37241.682,2509.995 37241.648,2503.796 37238.967,2498.559C37227.778,2476.701 37197.636,2417.815 37186.033,2395.148C37183.185,2389.584 37177.461,2386.083 37171.21,2386.083L37167.425,2386.083C37163.5,2386.083 37159.905,2388.281 37158.115,2391.774C37149.625,2408.343 37125.517,2455.39 37125.517,2455.39L37125.503,2455.418C37125.503,2455.418 37110.632,2483.389 37102.82,2498.082C37099.905,2503.567 37099.931,2510.148 37102.892,2515.608C37110.671,2529.956 37125.29,2556.92 37125.29,2556.92ZM37131.963,2579.697C37130.345,2576.443 37127.03,2574.381 37123.397,2574.367C37119.763,2574.353 37116.433,2576.391 37114.79,2579.632C37109.392,2590.288 37102.529,2603.833 37097.458,2613.842C37095.949,2616.82 37096.095,2620.368 37097.843,2623.213C37099.59,2626.057 37102.69,2627.791 37106.028,2627.791C37116.419,2627.791 37130.006,2627.791 37140.37,2627.791C37143.695,2627.791 37146.785,2626.071 37148.536,2623.244C37150.288,2620.416 37150.453,2616.884 37148.972,2613.906C37144.002,2603.911 37137.268,2590.366 37131.963,2579.697ZM37114.971,2433.765C37116.656,2436.917 37119.953,2438.873 37123.527,2438.841C37127.101,2438.81 37130.363,2436.797 37131.993,2433.616C37137.308,2423.243 37144.115,2409.958 37149.181,2400.072C37150.708,2397.093 37150.574,2393.536 37148.829,2390.68C37147.083,2387.825 37143.978,2386.083 37140.631,2386.083C37130.054,2386.083 37116.15,2386.083 37105.507,2386.083C37102.131,2386.083 37099.002,2387.856 37097.267,2390.752C37095.531,2393.648 37095.443,2397.243 37097.035,2400.22C37102.338,2410.139 37109.441,2423.422 37114.971,2433.765ZM37210.9,2593.083C37207.252,2593.083 37203.917,2595.147 37202.291,2598.413C37200.236,2602.538 37197.293,2608.446 37194.584,2613.883C37193.099,2616.865 37193.262,2620.403 37195.015,2623.235C37196.769,2626.067 37199.863,2627.791 37203.194,2627.791C37227.183,2627.791 37270.502,2627.791 37270.502,2627.791C37286.26,2627.791 37301.372,2621.531 37312.515,2610.389C37323.649,2599.254 37329.917,2585.123 37329.917,2569.376L37329.917,2568.372C37329.917,2552.614 37323.657,2537.502 37312.515,2526.36C37302.65,2516.495 37289.674,2510.458 37275.894,2509.202C37274.637,2509.088 37261.486,2509.016 37252.888,2508.981C37249.208,2508.946 37245.83,2511.015 37244.189,2514.31C37242.335,2518.029 37239.773,2523.171 37237.363,2528.009C37235.878,2530.991 37236.041,2534.528 37237.794,2537.361C37239.548,2540.193 37242.642,2541.917 37245.973,2541.917C37257.238,2541.917 37270.502,2541.917 37270.502,2541.917C37277.287,2541.917 37283.793,2544.612 37288.591,2549.409C37293.388,2554.207 37296.083,2560.713 37296.083,2567.498L37296.083,2567.502C37296.083,2574.287 37293.388,2580.793 37288.591,2585.591C37283.793,2590.388 37277.287,2593.083 37270.502,2593.083C37270.502,2593.083 37227.054,2593.083 37210.9,2593.083ZM37228.359,2546.083L37207.021,2588.917L37270.502,2588.917C37276.182,2588.917 37281.628,2586.66 37285.644,2582.644C37289.66,2578.628 37291.917,2573.182 37291.917,2567.502L37291.917,2567.498C37291.917,2561.818 37289.66,2556.372 37285.644,2552.356C37281.628,2548.34 37276.182,2546.083 37270.502,2546.083L37228.359,2546.083ZM37245.313,2471.083C37241.963,2471.083 37238.855,2472.826 37237.107,2475.684C37235.36,2478.542 37235.225,2482.103 37236.751,2485.085C37239.365,2490.192 37242.163,2495.658 37244.148,2499.535C37245.807,2502.777 37249.155,2504.804 37252.797,2504.772C37261.404,2504.736 37274.671,2504.664 37275.935,2504.551C37306.198,2501.838 37329.917,2476.407 37329.917,2445.438L37329.917,2444.436C37329.917,2411.666 37303.334,2386.083 37270.564,2386.083C37270.564,2386.083 37226.245,2386.083 37201.804,2386.083C37198.454,2386.083 37195.345,2387.826 37193.597,2390.684C37191.85,2393.542 37191.715,2397.103 37193.241,2400.085C37195.882,2405.243 37198.713,2410.774 37200.713,2414.681C37202.358,2417.895 37205.664,2419.917 37209.275,2419.917C37225.638,2419.917 37270.5,2419.917 37270.5,2419.917C37277.285,2419.917 37283.792,2422.612 37288.59,2427.41C37293.388,2432.208 37296.083,2438.715 37296.083,2445.5C37296.083,2459.629 37284.629,2471.083 37270.5,2471.083L37245.313,2471.083ZM37205.526,2424.083L37227.451,2466.917L37270.5,2466.917C37282.328,2466.917 37291.917,2457.328 37291.917,2445.5C37291.917,2439.82 37289.66,2434.373 37285.644,2430.356C37281.627,2426.34 37276.18,2424.083 37270.5,2424.083L37205.526,2424.083Z" style="fill:none;stroke:white;stroke-width:14.37px;"/>
            </g>
        </g>
    </g>
</svg>
