<?xml version='1.0' encoding='utf-8'?>
<svg xmlns="http://www.w3.org/2000/svg" xmlns:inkscape="http://www.inkscape.org/namespaces/inkscape" xmlns:ns2="http://sodipodi.sourceforge.net/DTD/sodipodi-0.dtd" xmlns:xlink="http://www.w3.org/1999/xlink" width="74mm" height="105mm" viewBox="0 0 74 105" version="1.1" id="svg1" inkscape:version="1.4.3 (0d15f75, 2025-12-25)" ns2:docname="kaart.svg" xml:space="preserve" inkscape:export-filename="kaart.png" inkscape:export-xdpi="96" inkscape:export-ydpi="96"><ns2:namedview id="namedview1" pagecolor="#ffffff" bordercolor="#000000" borderopacity="0.25" inkscape:showpageshadow="2" inkscape:pageopacity="0.0" inkscape:pagecheckerboard="0" inkscape:deskcolor="#d1d1d1" inkscape:document-units="mm" inkscape:zoom="2.2520763" inkscape:cx="122.55357" inkscape:cy="92.359215" inkscape:window-width="2560" inkscape:window-height="1566" inkscape:window-x="-11" inkscape:window-y="1789" inkscape:window-maximized="1" inkscape:current-layer="layer1" showguides="true" /><defs id="defs1" /><rect style="fill:#ffffff;fill-opacity:1;stroke-width:1.06814;stroke-linecap:round" id="rect15" width="74" height="105.00001" x="4.4408921e-16" y="2.9465034e-06" inkscape:label="wit" ns2:insensitive="true" /><rect style="fill:#c22522;fill-opacity:0.0822072;stroke-width:0.264999;stroke-linecap:round" id="rect1" width="73.999992" height="105" x="0" y="0" inkscape:label="roos" ns2:insensitive="true" /><g inkscape:label="Achtergrond" inkscape:groupmode="layer" id="layer1"><rect style="display:inline;fill:#c22522;fill-opacity:1;stroke-width:0.265296;stroke-linecap:round" id="rect6" width="73.999992" height="15.03367" x="3.8146973e-06" y="89.966339" /><path style="font-weight:800;font-size:11.4277px;font-family:'FR Kraken Slab';-inkscape-font-specification:'FR Kraken Slab Ultra-Bold';text-align:center;text-anchor:middle;fill:#ffffff;stroke-width:0.317934;stroke-linecap:round" d="m 12.030486,101.32859 h 5.988115 c 2.114124,0 3.074051,-0.77708 3.074051,-2.114124 0,-1.188481 -0.754228,-1.6913 -2.319823,-1.817004 v -0.319976 c 1.43989,-0.14856 1.976992,-0.628524 1.976992,-1.679872 0,-1.257047 -0.99421,-1.931281 -2.856925,-1.931281 h -5.86241 v 1.782721 h 0.822794 c 0.06857,0 0.114277,0.04571 0.114277,0.114277 v 4.068261 c 0,0.06857 -0.04571,0.114277 -0.114277,0.114277 h -0.822794 z m 3.622581,-4.61679 v -1.462746 h 1.519884 c 0.594241,0 0.914216,0.251409 0.914216,0.731373 0,0.468535 -0.319975,0.731373 -0.914216,0.731373 z m 0,2.834069 v -1.565595 h 1.577023 c 0.639951,0 0.99421,0.285693 0.99421,0.788512 0,0.502818 -0.354259,0.777083 -0.99421,0.777083 z m 8.319379,1.954141 c 1.177053,0 1.794149,-0.53711 1.794149,-1.714159 h 0.29712 v 0.02286 c 0,1.062779 0.628523,1.691309 2.28554,1.691309 1.817004,0 2.594088,-0.69709 2.594088,-1.988429 V 96.620383 H 29.21776 v 2.696937 c 0,0.331403 -0.07999,0.502819 -0.399969,0.502819 -0.331404,0 -0.422825,-0.171416 -0.422825,-0.502819 v -2.514094 c 0,-1.062776 -0.491391,-1.691299 -1.851288,-1.691299 -1.325613,0 -1.805576,0.354258 -1.828432,1.611305 h -0.308548 l -0.102849,-1.43989 h -1.896998 v 2.251257 h 2.022703 v -0.04571 c 0,-0.559957 0.239982,-0.788511 0.765656,-0.788511 0.525674,0 0.754228,0.262837 0.754228,0.788511 v 0.342831 h -0.891361 c -2.125552,0 -3.062623,0.559957 -3.062623,1.908426 0,1.154204 0.777083,1.759874 1.976992,1.759874 z m 0.925644,-1.40561 c -0.434253,0 -0.651379,-0.251411 -0.651379,-0.639952 0,-0.434253 0.331403,-0.674235 1.085631,-0.674235 h 0.617096 v 0.228554 c 0,0.639951 -0.388542,1.085633 -1.051348,1.085633 z m 6.719478,1.23419 h 6.5595 v -2.776931 h -1.577023 l -0.114277,1.211336 c -0.01143,0.09142 -0.05714,0.137133 -0.14856,0.148561 l -1.98842,0.07999 v -0.228554 l 3.599726,-3.039768 v -1.43989 h -6.319518 v 2.559805 h 1.577022 l 0.10285,-1.005638 c 0.01143,-0.102849 0.06857,-0.137132 0.159987,-0.14856 l 1.725583,-0.07999 v 0.228554 l -3.57687,3.039768 z m 9.416412,0.17142 c 1.177053,0 1.794149,-0.53711 1.794149,-1.714159 h 0.29712 v 0.02286 c 0,1.062779 0.628523,1.691309 2.28554,1.691309 1.817004,0 2.594088,-0.69709 2.594088,-1.988429 v -2.891208 h -1.725583 v 2.696937 c 0,0.331403 -0.07999,0.502819 -0.399969,0.502819 -0.331404,0 -0.422825,-0.171416 -0.422825,-0.502819 v -2.514094 c 0,-1.062776 -0.491391,-1.691299 -1.851288,-1.691299 -1.325613,0 -1.805576,0.354258 -1.828432,1.611305 h -0.308548 l -0.102849,-1.43989 h -1.896998 v 2.251257 h 2.022703 v -0.04571 c 0,-0.559957 0.239981,-0.788511 0.765656,-0.788511 0.525674,0 0.754228,0.262837 0.754228,0.788511 v 0.342831 h -0.891361 c -2.125552,0 -3.062623,0.559957 -3.062623,1.908426 0,1.154204 0.777083,1.759874 1.976992,1.759874 z m 0.925643,-1.40561 c -0.434252,0 -0.651378,-0.251411 -0.651378,-0.639952 0,-0.434253 0.331403,-0.674235 1.085631,-0.674235 h 0.617096 v 0.228554 c 0,0.639951 -0.388542,1.085633 -1.051349,1.085633 z m 6.673776,1.23419 h 4.216822 v -1.611305 h -0.914216 c -0.06857,0 -0.125705,-0.04571 -0.125705,-0.114277 v -1.885571 c 0,-0.582813 0.262837,-0.99421 0.834222,-0.99421 0.468536,0 0.708517,0.274265 0.708517,0.731373 v 1.222764 H 55.09005 V 96.7118 c 0,-0.959927 -0.44568,-1.599878 -1.485601,-1.599878 -1.028493,0 -1.519884,0.617095 -1.577023,1.782721 h -0.331403 v -1.611306 h -3.062624 v 1.599878 h 0.617096 c 0.06857,0 0.114277,0.04571 0.114277,0.114277 v 2.605516 c 0,0.06857 -0.04571,0.114277 -0.114277,0.114277 h -0.617096 z m 10.616323,0.17142 c 1.828432,0 2.719792,-0.7428 2.719792,-2.274116 v -1.154198 h -1.714155 v 1.199908 c 0,0.434253 -0.159988,0.708518 -0.59424,0.708518 -0.457108,0 -0.617096,-0.274265 -0.617096,-0.708518 v -2.388389 h 2.639799 v -1.599878 h -2.639799 v -1.817004 h -2.216974 l -0.07999,1.645589 c -0.01143,0.114277 -0.06857,0.171415 -0.182843,0.171415 h -0.99421 v 1.599878 h 1.028493 v 2.342679 c 0,1.531316 0.857078,2.274116 2.651227,2.274116 z" id="text4" inkscape:label="Bazart" aria-label="Bazart" /><path style="font-weight:500;font-size:5.29167px;font-family:Roboto;-inkscape-font-specification:'Roboto Medium';text-align:center;text-anchor:middle;stroke-width:0.265;stroke-linecap:round;fill:#000000;fill-opacity:1" d="m 22.972849,6.1758144 v 0.2067058 q 0,0.4263309 -0.111104,0.7648117 -0.111105,0.3384808 -0.31781,0.5761926 -0.204122,0.2377117 -0.490927,0.364319 -0.286804,0.1240235 -0.63562,0.1240235 -0.346233,0 -0.633037,-0.1240235 Q 20.50013,7.9612362 20.290841,7.7235245 20.081551,7.4858127 19.965279,7.1473319 19.851591,6.8088511 19.851591,6.3825202 V 6.1758144 q 0,-0.4263308 0.113688,-0.7622278 0.113688,-0.3384809 0.320394,-0.5761926 0.20929,-0.2402956 0.49351,-0.3643191 0.286805,-0.1266073 0.633037,-0.1266073 0.348816,0 0.635621,0.1266073 0.286804,0.1240235 0.49351,0.3643191 0.206706,0.2377117 0.31781,0.5761926 0.113688,0.335897 0.113688,0.7622278 z M 22.32431,6.3825202 V 6.1706467 q 0,-0.3152264 -0.06201,-0.5555219 -0.05943,-0.2428794 -0.178284,-0.4056603 -0.116272,-0.1653647 -0.286804,-0.248047 -0.170533,-0.085266 -0.38499,-0.085266 -0.214457,0 -0.382406,0.085266 -0.167948,0.082682 -0.286804,0.248047 -0.116272,0.1627809 -0.178284,0.4056603 -0.06201,0.2402955 -0.06201,0.5555219 v 0.2118735 q 0,0.3152265 0.06201,0.5581058 0.06201,0.2428794 0.180868,0.4108279 0.121439,0.1653647 0.289388,0.2506309 0.167948,0.082682 0.382406,0.082682 0.217041,0 0.384989,-0.082682 0.167949,-0.085266 0.284221,-0.2506309 0.116272,-0.1679485 0.1757,-0.4108279 0.06201,-0.2428793 0.06201,-0.5581058 z m 2.723349,0.3746544 H 24.06839 V 6.2429938 h 0.979269 q 0.255799,0 0.413412,-0.082682 0.157613,-0.082682 0.22996,-0.2273765 0.07493,-0.1472779 0.07493,-0.335897 0,-0.1782838 -0.07493,-0.3333132 -0.07235,-0.1576132 -0.22996,-0.2532147 -0.157613,-0.095601 -0.413412,-0.095601 h -0.780314 v 3.2452819 h -0.64854 V 4.3981441 h 1.428854 q 0.436666,0 0.741558,0.1550293 0.307475,0.1524456 0.467672,0.423747 0.160197,0.2687177 0.160197,0.61495 0,0.364319 -0.160197,0.6252852 -0.160197,0.2609661 -0.467672,0.4004926 -0.304892,0.1395264 -0.741558,0.1395264 z m 4.410586,0.8888352 V 8.1601906 H 27.46095 V 7.6460098 Z M 27.644402,4.3981441 v 3.7620465 h -0.64854 V 4.3981441 Z m 1.552877,1.5709644 V 6.4755379 H 27.46095 V 5.9691085 Z M 29.445326,4.3981441 V 4.9149087 H 27.46095 V 4.3981441 Z m 1.188559,0 v 3.7620465 h -0.64854 V 4.3981441 Z m 2.260845,0 -1.524455,1.81126 -0.868165,0.919841 -0.113688,-0.6433719 0.620117,-0.7648117 1.095541,-1.3229174 z m -0.697632,3.7620465 -1.237651,-1.782838 0.447001,-0.4418338 1.560629,2.2246718 z M 35.835121,6.3050055 V 6.8010996 H 34.468279 V 6.3050055 Z m 4.811078,-0.067179 v 1.4366057 q -0.0801,0.1059368 -0.250631,0.2325441 -0.167948,0.1240235 -0.447001,0.2144573 -0.279053,0.090434 -0.695048,0.090434 -0.353984,0 -0.64854,-0.1188558 Q 38.310423,7.9715715 38.095966,7.7390274 37.884092,7.5064833 37.76782,7.1731701 37.651548,6.8372731 37.651548,6.4083585 V 6.1473923 q 0,-0.4263308 0.105937,-0.759644 0.10852,-0.335897 0.310059,-0.5684411 0.201538,-0.2325441 0.485758,-0.3513999 0.286805,-0.1214397 0.64854,-0.1214397 0.462504,0 0.764812,0.1550294 0.304891,0.1524455 0.470256,0.423747 0.165364,0.2713014 0.209289,0.6201175 h -0.63562 q -0.03101,-0.1963705 -0.12144,-0.3513999 -0.08785,-0.1550294 -0.253215,-0.2428794 -0.162781,-0.090434 -0.423747,-0.090434 -0.224792,0 -0.395325,0.085266 -0.170532,0.085266 -0.28422,0.2506308 -0.111105,0.1653647 -0.167949,0.4030764 -0.05684,0.2377118 -0.05684,0.5426029 v 0.2661338 q 0,0.3100588 0.0646,0.5503543 0.06718,0.2402956 0.191203,0.4056602 0.126607,0.1653647 0.307475,0.2506309 0.180867,0.082682 0.408244,0.082682 0.222209,0 0.364319,-0.036173 0.14211,-0.038757 0.224792,-0.090434 0.08527,-0.05426 0.131775,-0.1033529 V 6.7210011 H 39.217345 V 6.2378261 Z M 42.876038,7.599501 V 6.2662482 q 0,-0.1498617 -0.05426,-0.2583823 -0.05426,-0.1085206 -0.165365,-0.1679485 -0.10852,-0.059428 -0.273885,-0.059428 -0.152445,0 -0.26355,0.051676 -0.111104,0.051677 -0.173116,0.1395265 -0.06201,0.08785 -0.06201,0.1989543 h -0.620117 q 0,-0.1653646 0.0801,-0.320394 0.0801,-0.1550294 0.232544,-0.2764691 0.152446,-0.1214397 0.364319,-0.1912029 0.211874,-0.069763 0.475424,-0.069763 0.315226,0 0.558106,0.1059367 0.245463,0.1059368 0.384989,0.3203941 0.142111,0.2118735 0.142111,0.5322675 v 1.242819 q 0,0.1912029 0.02584,0.3436485 0.02842,0.1498617 0.0801,0.2609661 v 0.041341 H 42.969056 Q 42.925131,8.0594215 42.899293,7.9043921 42.876038,7.7467789 42.876038,7.599501 Z m 0.09043,-1.1394661 0.0052,0.3849897 h -0.447002 q -0.173116,0 -0.304891,0.03359 -0.131775,0.031006 -0.219625,0.093018 -0.08785,0.062012 -0.131775,0.1498618 -0.04393,0.08785 -0.04393,0.1989544 0,0.1111043 0.05168,0.204122 0.05168,0.090434 0.149862,0.1421103 0.100769,0.051676 0.242879,0.051676 0.191203,0 0.333313,-0.077515 0.144694,-0.080099 0.227377,-0.1937867 0.08268,-0.1162721 0.08785,-0.219625 l 0.201539,0.2764691 Q 43.087912,7.6098362 43.012981,7.7312759 42.93805,7.8527156 42.81661,7.96382 42.697755,8.0723406 42.529806,8.1421038 42.364441,8.211867 42.1474,8.211867 q -0.273885,0 -0.488342,-0.1085205 Q 41.4446,7.9922421 41.323161,7.8062068 41.201721,7.6175877 41.201721,7.379876 q 0,-0.2222088 0.08268,-0.3927411 0.08527,-0.1731162 0.248047,-0.2893882 0.165365,-0.1162721 0.403077,-0.1757 0.237711,-0.062012 0.542603,-0.062012 z m 1.81126,-0.5632734 V 8.1601906 H 44.155031 V 5.3644939 h 0.594279 z m 0.855246,-0.5503543 -0.0052,0.5787763 q -0.05684,-0.010335 -0.124023,-0.015503 -0.0646,-0.00517 -0.129191,-0.00517 -0.160198,0 -0.281637,0.046509 -0.12144,0.043925 -0.204122,0.1291911 -0.0801,0.082682 -0.124024,0.2015382 -0.04392,0.1188559 -0.05168,0.2661338 l -0.14211,0.010335 q 0,-0.2635499 0.05168,-0.4883426 0.05168,-0.2247926 0.155029,-0.3953249 0.105937,-0.1705323 0.26355,-0.2661338 0.160197,-0.095601 0.369487,-0.095601 0.05684,0 0.12144,0.010335 0.06718,0.010335 0.100769,0.023255 z M 47.505402,7.599501 V 6.2662482 q 0,-0.1498617 -0.05426,-0.2583823 -0.05426,-0.1085206 -0.165365,-0.1679485 -0.10852,-0.059428 -0.273885,-0.059428 -0.152445,0 -0.26355,0.051676 -0.111104,0.051677 -0.173116,0.1395265 -0.06201,0.08785 -0.06201,0.1989543 h -0.620117 q 0,-0.1653646 0.0801,-0.320394 0.0801,-0.1550294 0.232544,-0.2764691 0.152446,-0.1214397 0.364319,-0.1912029 0.211874,-0.069763 0.475424,-0.069763 0.315226,0 0.558106,0.1059367 0.245463,0.1059368 0.384989,0.3203941 0.142111,0.2118735 0.142111,0.5322675 v 1.242819 q 0,0.1912029 0.02584,0.3436485 0.02842,0.1498617 0.0801,0.2609661 v 0.041341 H 47.59842 Q 47.554495,8.0594215 47.528657,7.9043921 47.505402,7.7467789 47.505402,7.599501 Z m 0.09043,-1.1394661 0.0052,0.3849897 h -0.447002 q -0.173116,0 -0.304891,0.03359 -0.131775,0.031006 -0.219625,0.093018 -0.08785,0.062012 -0.131775,0.1498618 -0.04393,0.08785 -0.04393,0.1989544 0,0.1111043 0.05168,0.204122 0.05168,0.090434 0.149862,0.1421103 0.100769,0.051676 0.242879,0.051676 0.191203,0 0.333313,-0.077515 0.144694,-0.080099 0.227377,-0.1937867 0.08268,-0.1162721 0.08785,-0.219625 l 0.201538,0.2764691 q -0.03101,0.1059367 -0.105937,0.2273764 -0.07493,0.1214397 -0.196371,0.2325441 -0.118855,0.1085206 -0.286804,0.1782838 -0.165365,0.069763 -0.382406,0.069763 -0.273885,0 -0.488342,-0.1085205 -0.214458,-0.1111044 -0.335897,-0.2971397 -0.12144,-0.1886191 -0.12144,-0.4263308 0,-0.2222088 0.08268,-0.3927411 0.08527,-0.1731162 0.248047,-0.2893882 0.165365,-0.1162721 0.403077,-0.1757 0.237711,-0.062012 0.542603,-0.062012 z m 2.976565,-1.095541 h 0.565857 v 2.718182 q 0,0.3772382 -0.160197,0.6407881 -0.160197,0.26355 -0.447002,0.4004926 -0.286804,0.1395265 -0.664042,0.1395265 -0.160197,0 -0.356568,-0.046509 Q 49.316663,9.1704654 49.133211,9.0671125 48.952344,8.9663434 48.830904,8.8009787 l 0.291972,-0.3669029 q 0.149862,0.1782838 0.330729,0.2609662 0.180868,0.082682 0.379822,0.082682 0.214458,0 0.364319,-0.080098 0.152446,-0.077515 0.235128,-0.2299603 0.08268,-0.1524455 0.08268,-0.3720705 V 5.9975306 Z m -1.89911,1.4288542 v -0.05426 q 0,-0.3178102 0.07751,-0.5787763 0.07751,-0.26355 0.222209,-0.4521691 0.144694,-0.1912029 0.3514,-0.291972 0.206706,-0.1033529 0.467672,-0.1033529 0.271301,0 0.462504,0.098185 0.193787,0.098185 0.322978,0.2816368 0.129191,0.1808676 0.201538,0.4340823 0.07493,0.2506308 0.111105,0.5581058 v 0.1731161 q -0.03359,0.2997235 -0.113688,0.5477705 -0.0801,0.248047 -0.211874,0.4289147 -0.131775,0.1808676 -0.325562,0.2790529 -0.191202,0.098185 -0.452169,0.098185 -0.255798,0 -0.462504,-0.1059367 Q 49.120292,7.9999935 48.973014,7.8087906 48.82832,7.6175877 48.750805,7.3592054 48.673291,7.0982393 48.673291,6.7933481 Z m 0.622701,-0.05426 v 0.05426 q 0,0.1912029 0.03617,0.3565676 0.03876,0.1653647 0.116272,0.291972 0.0801,0.1240236 0.201538,0.1963706 0.124023,0.069763 0.291972,0.069763 0.219625,0 0.359151,-0.093018 0.14211,-0.093018 0.217041,-0.2506309 0.07751,-0.160197 0.108521,-0.3565676 V 6.5401335 q -0.0155,-0.1524456 -0.0646,-0.2842206 -0.04651,-0.131775 -0.126607,-0.2299603 -0.0801,-0.1007691 -0.201538,-0.1550293 -0.12144,-0.056844 -0.286805,-0.056844 -0.167948,0 -0.291972,0.072347 -0.124023,0.072347 -0.204122,0.1989544 -0.07751,0.1266073 -0.116272,0.2945558 -0.03876,0.1679485 -0.03876,0.3591514 z m 3.718122,1.4727792 q -0.310059,0 -0.56069,-0.1007691 Q 52.205377,8.007745 52.029677,7.8242936 51.856561,7.6408421 51.763543,7.3927951 51.670526,7.1447481 51.670526,6.8579437 V 6.7545908 q 0,-0.3281456 0.0956,-0.5942793 0.0956,-0.2661338 0.266134,-0.4547529 0.170532,-0.1912029 0.403076,-0.291972 0.232544,-0.1007691 0.503846,-0.1007691 0.299723,0 0.524516,0.1007691 0.224792,0.1007691 0.37207,0.2842205 0.149862,0.1808676 0.222209,0.4314985 0.07493,0.2506308 0.07493,0.5529381 V 6.9483775 H 51.972833 V 6.5013761 h 1.545126 V 6.4522835 Q 53.512792,6.284335 53.45078,6.137057 53.391352,5.9897791 53.267328,5.8993453 q -0.124023,-0.090434 -0.330729,-0.090434 -0.155029,0 -0.276469,0.067179 -0.118856,0.064596 -0.198955,0.1886191 -0.0801,0.1240235 -0.124023,0.2997235 -0.04134,0.1731161 -0.04134,0.3901573 v 0.1033529 q 0,0.1834515 0.04909,0.3410647 0.05168,0.1550294 0.149862,0.2713014 0.09819,0.116272 0.237712,0.1834514 0.139526,0.064596 0.31781,0.064596 0.224793,0 0.400493,-0.090434 0.1757,-0.090434 0.304891,-0.2557985 l 0.328145,0.3178103 q -0.09043,0.1317749 -0.235127,0.2532146 -0.144695,0.1188559 -0.353984,0.1937868 -0.206706,0.074931 -0.480591,0.074931 z" id="text1" aria-label="OPEK - Garage" /><g id="text3" style="font-weight:900;font-size:4.30605px;font-family:'Roboto Slab';-inkscape-font-specification:'Roboto Slab Heavy';text-align:center;text-anchor:middle;stroke-width:0.308058;stroke-linecap:round" aria-label="Wil je zeker zijn van je plaats?&#10;Reserveer deze plek met BART!"><path style="font-weight:500;font-family:Roboto;-inkscape-font-specification:'Roboto Medium';stroke-width:0.308059;fill:#000000;fill-opacity:1" d="m 9.4963696,41.852077 0.6097434,-2.373794 h 0.31959 l -0.03574,0.611846 -0.6517947,2.449487 h -0.332205 z m -0.4562563,-2.373794 0.4941024,2.354871 0.044154,0.706462 H 9.2251389 L 8.516575,39.478283 Z m 2.0773327,2.348564 0.487795,-2.348564 h 0.52564 l -0.708563,3.061333 h -0.353231 z m -0.567692,-2.348564 0.603436,2.380102 0.08831,0.681231 h -0.332205 l -0.641282,-2.449487 -0.03364,-0.611846 z m 2.462101,0.786359 v 2.274974 h -0.50882 v -2.274974 z m -0.542461,-0.597128 q 0,-0.115641 0.07569,-0.191333 0.0778,-0.07779 0.214462,-0.07779 0.134564,0 0.212359,0.07779 0.0778,0.07569 0.0778,0.191333 0,0.113538 -0.0778,0.189231 -0.0778,0.07569 -0.212359,0.07569 -0.136667,0 -0.214462,-0.07569 -0.07569,-0.07569 -0.07569,-0.189231 z m 1.639999,-0.357436 v 3.229538 h -0.50882 v -3.229538 z m 1.650513,0.954564 h 0.50882 v 2.472615 q 0,0.233384 -0.0799,0.393179 -0.0799,0.161897 -0.235487,0.243897 -0.15559,0.0841 -0.380564,0.0841 -0.06728,0 -0.138769,-0.01051 -0.07359,-0.0084 -0.138769,-0.02523 l 0.0021,-0.395282 q 0.04415,0.0084 0.09461,0.01262 0.04836,0.0063 0.09251,0.0063 0.09041,0 0.151385,-0.03154 0.06097,-0.03154 0.09251,-0.09882 0.03154,-0.06728 0.03154,-0.178717 z m -0.04415,-0.597128 q 0,-0.115641 0.0778,-0.191333 0.0778,-0.07779 0.212359,-0.07779 0.136667,0 0.212359,0.07779 0.0778,0.07569 0.0778,0.191333 0,0.113538 -0.0778,0.189231 -0.07569,0.07569 -0.212359,0.07569 -0.134564,0 -0.212359,-0.07569 -0.0778,-0.07569 -0.0778,-0.189231 z m 2.102563,2.914153 q -0.252308,0 -0.456256,-0.082 -0.201846,-0.0841 -0.344821,-0.233385 -0.140871,-0.149282 -0.216564,-0.351128 -0.07569,-0.201846 -0.07569,-0.43523 v -0.0841 q 0,-0.267025 0.07779,-0.483589 0.0778,-0.216564 0.216564,-0.370052 0.138769,-0.155589 0.328,-0.237589 0.189231,-0.082 0.41,-0.082 0.243897,0 0.42682,0.082 0.182923,0.082 0.302769,0.231282 0.121949,0.147179 0.180821,0.351128 0.06097,0.203948 0.06097,0.449948 v 0.216564 H 16.970982 V 41.18977 h 1.257333 v -0.03995 q -0.0042,-0.136666 -0.05467,-0.256513 -0.04836,-0.119846 -0.149282,-0.193435 -0.100923,-0.07359 -0.269128,-0.07359 -0.126154,0 -0.224974,0.05467 -0.09672,0.05256 -0.161897,0.153487 -0.06518,0.100923 -0.100924,0.243897 -0.03364,0.140872 -0.03364,0.317487 v 0.0841 q 0,0.149282 0.03995,0.277538 0.04205,0.126154 0.121949,0.220769 0.0799,0.09462 0.193436,0.149282 0.113538,0.05256 0.258615,0.05256 0.182923,0 0.325897,-0.07359 0.142975,-0.07359 0.248103,-0.208154 l 0.267025,0.258615 q -0.07359,0.107231 -0.191333,0.206051 -0.117743,0.09672 -0.288051,0.157693 -0.168205,0.06097 -0.391077,0.06097 z m 4.13364,-0.445744 v 0.403693 h -1.694666 v -0.403693 z m -0.04626,-1.555896 -1.475999,1.959589 h -0.328 v -0.325898 l 1.467589,-1.949076 h 0.33641 z m -0.195538,-0.315385 v 0.403692 H 20.12693 v -0.403692 z m 1.616871,2.317025 q -0.252308,0 -0.456257,-0.082 -0.201846,-0.0841 -0.34482,-0.233385 -0.140872,-0.149282 -0.216564,-0.351128 -0.07569,-0.201846 -0.07569,-0.43523 v -0.0841 q 0,-0.267025 0.07779,-0.483589 0.07779,-0.216564 0.216564,-0.370052 0.138769,-0.155589 0.327999,-0.237589 0.189231,-0.082 0.41,-0.082 0.243898,0 0.426821,0.082 0.182923,0.082 0.302769,0.231282 0.121949,0.147179 0.18082,0.351128 0.06098,0.203948 0.06098,0.449948 v 0.216564 H 22.479699 V 41.18977 h 1.257333 v -0.03995 q -0.0042,-0.136666 -0.05467,-0.256513 -0.04836,-0.119846 -0.149282,-0.193435 -0.100923,-0.07359 -0.269128,-0.07359 -0.126154,0 -0.224974,0.05467 -0.09672,0.05256 -0.161898,0.153487 -0.06518,0.100923 -0.100923,0.243897 -0.03364,0.140872 -0.03364,0.317487 v 0.0841 q 0,0.149282 0.03995,0.277538 0.04205,0.126154 0.121948,0.220769 0.0799,0.09462 0.193436,0.149282 0.113539,0.05256 0.258616,0.05256 0.182923,0 0.325897,-0.07359 0.142974,-0.07359 0.248102,-0.208154 l 0.267026,0.258615 q -0.07359,0.107231 -0.191333,0.206051 -0.117744,0.09672 -0.288052,0.157693 -0.168205,0.06097 -0.391076,0.06097 z m 1.814512,-3.271589 v 3.229538 h -0.508821 v -3.229538 z m 1.412922,0.954564 -0.990307,1.097538 -0.542461,0.555077 -0.132462,-0.428923 0.41,-0.506718 0.643384,-0.716974 z m -0.502512,2.274974 -0.738,-1.068103 0.31959,-0.355333 1.005025,1.423436 z m 1.785077,0.04205 q -0.252308,0 -0.456256,-0.082 -0.201846,-0.0841 -0.344821,-0.233385 -0.140871,-0.149282 -0.216564,-0.351128 -0.07569,-0.201846 -0.07569,-0.43523 v -0.0841 q 0,-0.267025 0.0778,-0.483589 0.07779,-0.216564 0.216564,-0.370052 0.138769,-0.155589 0.328,-0.237589 0.18923,-0.082 0.41,-0.082 0.243897,0 0.42682,0.082 0.182923,0.082 0.302769,0.231282 0.121949,0.147179 0.180821,0.351128 0.06097,0.203948 0.06097,0.449948 v 0.216564 H 26.989698 V 41.18977 h 1.257333 v -0.03995 q -0.0042,-0.136666 -0.05467,-0.256513 -0.04836,-0.119846 -0.149282,-0.193435 -0.100923,-0.07359 -0.269128,-0.07359 -0.126154,0 -0.224974,0.05467 -0.09672,0.05256 -0.161898,0.153487 -0.06518,0.100923 -0.100923,0.243897 -0.03364,0.140872 -0.03364,0.317487 v 0.0841 q 0,0.149282 0.03995,0.277538 0.04205,0.126154 0.121949,0.220769 0.0799,0.09462 0.193436,0.149282 0.113538,0.05256 0.258615,0.05256 0.182923,0 0.325897,-0.07359 0.142974,-0.07359 0.248103,-0.208154 l 0.267025,0.258615 q -0.07359,0.107231 -0.191333,0.206051 -0.117744,0.09672 -0.288051,0.157693 -0.168205,0.06097 -0.391077,0.06097 z m 1.812408,-1.883897 v 1.841846 h -0.506717 v -2.274974 h 0.483589 z m 0.695949,-0.447846 -0.0042,0.470974 q -0.04626,-0.0084 -0.100923,-0.01261 -0.05256,-0.0042 -0.105128,-0.0042 -0.130359,0 -0.22918,0.03785 -0.09882,0.03574 -0.166102,0.105128 -0.06518,0.06728 -0.100923,0.164 -0.03574,0.09672 -0.04205,0.216564 l -0.115641,0.0084 q 0,-0.214461 0.04205,-0.397384 0.04205,-0.182923 0.126153,-0.321692 0.08621,-0.13877 0.214462,-0.216564 0.130359,-0.0778 0.300667,-0.0778 0.04626,0 0.09882,0.0084 0.05467,0.0084 0.082,0.01892 z m 3.147537,1.885999 v 0.403693 h -1.694666 v -0.403693 z m -0.04626,-1.555896 -1.476,1.959589 H 31.64267 v -0.325898 l 1.467589,-1.949076 h 0.33641 z m -0.195538,-0.315385 v 0.403692 H 31.6679 v -0.403692 z m 1.19005,0 v 2.274974 h -0.50882 V 40.264642 Z M 33.89872,39.667514 q 0,-0.115641 0.07569,-0.191333 0.0778,-0.07779 0.214461,-0.07779 0.134564,0 0.212359,0.07779 0.0778,0.07569 0.0778,0.191333 0,0.113538 -0.0778,0.189231 -0.0778,0.07569 -0.212359,0.07569 -0.136666,0 -0.214461,-0.07569 -0.07569,-0.07569 -0.07569,-0.189231 z m 1.122768,0.597128 h 0.508821 v 2.472615 q 0,0.233384 -0.0799,0.393179 -0.0799,0.161897 -0.235487,0.243897 -0.155589,0.0841 -0.380564,0.0841 -0.06728,0 -0.138769,-0.01051 -0.07359,-0.0084 -0.138769,-0.02523 l 0.0021,-0.395282 q 0.04415,0.0084 0.09462,0.01262 0.04836,0.0063 0.09251,0.0063 0.09041,0 0.151384,-0.03154 0.06098,-0.03154 0.09251,-0.09882 0.03154,-0.06728 0.03154,-0.178717 z m -0.04415,-0.597128 q 0,-0.115641 0.07779,-0.191333 0.0778,-0.07779 0.212359,-0.07779 0.136667,0 0.212359,0.07779 0.0778,0.07569 0.0778,0.191333 0,0.113538 -0.0778,0.189231 -0.07569,0.07569 -0.212359,0.07569 -0.134564,0 -0.212359,-0.07569 -0.07779,-0.07569 -0.07779,-0.189231 z m 1.602154,1.08282 v 1.789282 h -0.506717 v -2.274974 h 0.477281 z m -0.09041,0.567692 -0.164,-0.0021 q 0.0021,-0.241795 0.06728,-0.443641 0.06728,-0.201846 0.185026,-0.346923 0.119846,-0.145077 0.285948,-0.222872 0.166103,-0.0799 0.370052,-0.0799 0.163999,0 0.296461,0.04626 0.134564,0.04415 0.229179,0.145077 0.09672,0.100923 0.14718,0.26282 0.05046,0.159795 0.05046,0.39318 v 1.469692 h -0.50882 v -1.471795 q 0,-0.164 -0.04836,-0.258615 -0.04626,-0.09672 -0.136667,-0.136667 -0.08831,-0.04205 -0.220769,-0.04205 -0.130359,0 -0.233384,0.05467 -0.103026,0.05467 -0.174513,0.149282 -0.06938,0.09461 -0.107231,0.218666 -0.03785,0.124052 -0.03785,0.264923 z m 3.795127,0.82 0.557179,-1.873384 h 0.525641 l -0.790564,2.274974 h -0.328 z m -0.426821,-1.873384 0.567693,1.881794 0.02733,0.39318 h -0.328 l -0.794769,-2.274974 z m 3.073946,1.818717 v -1.084922 q 0,-0.121949 -0.04415,-0.210257 -0.04415,-0.08831 -0.134564,-0.136666 -0.08831,-0.04836 -0.222872,-0.04836 -0.124051,0 -0.214461,0.04205 -0.09041,0.04205 -0.140872,0.113538 -0.05046,0.07149 -0.05046,0.161898 h -0.504616 q 0,-0.134564 0.06518,-0.260718 0.06518,-0.126154 0.189231,-0.224974 0.124051,-0.09882 0.296461,-0.15559 0.17241,-0.05677 0.386872,-0.05677 0.256512,0 0.454153,0.0862 0.199744,0.0862 0.313282,0.260718 0.115641,0.17241 0.115641,0.433128 v 1.011333 q 0,0.155589 0.02103,0.279641 0.02313,0.121948 0.06518,0.212359 v 0.03364 h -0.519333 q -0.03574,-0.082 -0.05677,-0.208154 -0.01892,-0.128257 -0.01892,-0.248103 z m 0.07359,-0.92723 0.0042,0.313282 h -0.363744 q -0.140871,0 -0.248102,0.02733 -0.107231,0.02523 -0.178718,0.07569 -0.07149,0.05046 -0.107231,0.121949 -0.03574,0.07149 -0.03574,0.161898 0,0.09041 0.04205,0.166102 0.04205,0.07359 0.121949,0.115641 0.082,0.04205 0.197641,0.04205 0.155589,0 0.27123,-0.06308 0.117744,-0.06518 0.185026,-0.157692 0.06728,-0.09461 0.07149,-0.178718 l 0.164,0.224975 q -0.02523,0.0862 -0.0862,0.185025 -0.06097,0.09882 -0.159795,0.189231 -0.09672,0.08831 -0.233384,0.145077 -0.134565,0.05677 -0.31118,0.05677 -0.222872,0 -0.397384,-0.08831 -0.174513,-0.09041 -0.273334,-0.241795 -0.09882,-0.153487 -0.09882,-0.346923 0,-0.18082 0.06728,-0.319589 0.06938,-0.140872 0.201846,-0.235487 0.134564,-0.09462 0.328,-0.142975 0.193436,-0.05046 0.441538,-0.05046 z m 1.467591,-0.405795 v 1.789282 h -0.506718 v -2.274974 h 0.477282 z m -0.09041,0.567692 -0.164,-0.0021 q 0.0021,-0.241795 0.06728,-0.443641 0.06728,-0.201846 0.185025,-0.346923 0.119846,-0.145077 0.285949,-0.222872 0.166102,-0.0799 0.370051,-0.0799 0.164,0 0.296461,0.04626 0.134565,0.04415 0.22918,0.145077 0.09672,0.100923 0.147179,0.26282 0.05046,0.159795 0.05046,0.39318 v 1.469692 h -0.50882 v -1.471795 q 0,-0.164 -0.04836,-0.258615 -0.04626,-0.09672 -0.136667,-0.136667 -0.08831,-0.04205 -0.220769,-0.04205 -0.130359,0 -0.233385,0.05467 -0.103025,0.05467 -0.174513,0.149282 -0.06938,0.09461 -0.10723,0.218666 -0.03785,0.124052 -0.03785,0.264923 z m 3.080257,-1.053384 h 0.50882 v 2.472615 q 0,0.233384 -0.0799,0.393179 -0.0799,0.161897 -0.235487,0.243897 -0.15559,0.0841 -0.380564,0.0841 -0.06728,0 -0.13877,-0.01051 -0.07359,-0.0084 -0.138769,-0.02523 l 0.0021,-0.395282 q 0.04415,0.0084 0.09462,0.01262 0.04836,0.0063 0.09251,0.0063 0.09041,0 0.151384,-0.03154 0.06097,-0.03154 0.09251,-0.09882 0.03154,-0.06728 0.03154,-0.178717 z m -0.04415,-0.597128 q 0,-0.115641 0.0778,-0.191333 0.07779,-0.07779 0.212359,-0.07779 0.136666,0 0.212359,0.07779 0.07779,0.07569 0.07779,0.191333 0,0.113538 -0.07779,0.189231 -0.07569,0.07569 -0.212359,0.07569 -0.134564,0 -0.212359,-0.07569 -0.0778,-0.07569 -0.0778,-0.189231 z m 2.102561,2.914153 q -0.252308,0 -0.456256,-0.082 -0.201846,-0.0841 -0.344821,-0.233385 -0.140872,-0.149282 -0.216564,-0.351128 -0.07569,-0.201846 -0.07569,-0.43523 v -0.0841 q 0,-0.267025 0.0778,-0.483589 0.07779,-0.216564 0.216564,-0.370052 0.138769,-0.155589 0.328,-0.237589 0.18923,-0.082 0.41,-0.082 0.243897,0 0.42682,0.082 0.182923,0.082 0.302769,0.231282 0.121949,0.147179 0.18082,0.351128 0.06097,0.203948 0.06097,0.449948 v 0.216564 H 48.673433 V 41.18977 h 1.257333 v -0.03995 q -0.0042,-0.136666 -0.05467,-0.256513 -0.04836,-0.119846 -0.149282,-0.193435 -0.100923,-0.07359 -0.269128,-0.07359 -0.126154,0 -0.224974,0.05467 -0.09672,0.05256 -0.161898,0.153487 -0.06518,0.100923 -0.100923,0.243897 -0.03364,0.140872 -0.03364,0.317487 v 0.0841 q 0,0.149282 0.03995,0.277538 0.04205,0.126154 0.121949,0.220769 0.0799,0.09462 0.193435,0.149282 0.113539,0.05256 0.258616,0.05256 0.182923,0 0.325897,-0.07359 0.142974,-0.07359 0.248103,-0.208154 l 0.267025,0.258615 q -0.07359,0.107231 -0.191333,0.206051 -0.117744,0.09672 -0.288051,0.157693 -0.168205,0.06097 -0.391077,0.06097 z m 2.882614,-1.879692 v 2.712307 h -0.506718 v -3.14964 h 0.466769 z m 1.482307,0.679128 v 0.04415 q 0,0.248103 -0.05887,0.460461 -0.05677,0.210257 -0.170307,0.367949 -0.111436,0.15559 -0.275436,0.241795 -0.164,0.0862 -0.378461,0.0862 -0.212359,0 -0.372154,-0.0778 -0.157692,-0.0799 -0.267026,-0.224974 -0.109333,-0.145077 -0.176615,-0.340615 -0.06518,-0.197641 -0.09251,-0.433129 v -0.170307 q 0.02733,-0.250205 0.09251,-0.454154 0.06728,-0.203949 0.176615,-0.351128 0.109334,-0.147179 0.267026,-0.227077 0.157692,-0.0799 0.367949,-0.0799 0.214461,0 0.380563,0.0841 0.166103,0.082 0.279641,0.235487 0.113539,0.151385 0.170308,0.365846 0.05677,0.212359 0.05677,0.473077 z m -0.506718,0.04415 v -0.04415 q 0,-0.157692 -0.02943,-0.292256 -0.02944,-0.136667 -0.09251,-0.239692 -0.06308,-0.103026 -0.161898,-0.159795 -0.09672,-0.05887 -0.233384,-0.05887 -0.134564,0 -0.231282,0.04626 -0.09672,0.04415 -0.161897,0.124052 -0.06518,0.0799 -0.100924,0.187128 -0.03574,0.105128 -0.05046,0.229179 v 0.407898 q 0.02523,0.151384 0.0862,0.277538 0.06097,0.126154 0.17241,0.201846 0.113539,0.07359 0.290154,0.07359 0.136667,0 0.233385,-0.05887 0.09672,-0.05887 0.157692,-0.161897 0.06308,-0.105129 0.09251,-0.241795 0.02943,-0.136667 0.02943,-0.290154 z m 1.478104,-2.115179 v 3.229538 h -0.508821 v -3.229538 z m 1.83764,2.773281 v -1.084922 q 0,-0.121949 -0.04415,-0.210257 -0.04415,-0.08831 -0.134564,-0.136666 -0.08831,-0.04836 -0.222872,-0.04836 -0.124051,0 -0.214461,0.04205 -0.09041,0.04205 -0.140872,0.113538 -0.05046,0.07149 -0.05046,0.161898 h -0.504616 q 0,-0.134564 0.06518,-0.260718 0.06518,-0.126154 0.189231,-0.224974 0.124051,-0.09882 0.296461,-0.15559 0.17241,-0.05677 0.386872,-0.05677 0.256512,0 0.454153,0.0862 0.199744,0.0862 0.313282,0.260718 0.115641,0.17241 0.115641,0.433128 v 1.011333 q 0,0.155589 0.02103,0.279641 0.02313,0.121948 0.06518,0.212359 v 0.03364 h -0.519333 q -0.03574,-0.082 -0.05677,-0.208154 -0.01892,-0.128257 -0.01892,-0.248103 z m 0.07359,-0.92723 0.0042,0.313282 h -0.363744 q -0.140871,0 -0.248102,0.02733 -0.107231,0.02523 -0.178718,0.07569 -0.07149,0.05046 -0.107231,0.121949 -0.03574,0.07149 -0.03574,0.161898 0,0.09041 0.04205,0.166102 0.04205,0.07359 0.121949,0.115641 0.082,0.04205 0.197641,0.04205 0.155589,0 0.27123,-0.06308 0.117744,-0.06518 0.185026,-0.157692 0.06728,-0.09461 0.07149,-0.178718 l 0.164,0.224975 q -0.02523,0.0862 -0.0862,0.185025 -0.06097,0.09882 -0.159795,0.189231 -0.09672,0.08831 -0.233385,0.145077 -0.134564,0.05677 -0.311179,0.05677 -0.222872,0 -0.397384,-0.08831 -0.174513,-0.09041 -0.273334,-0.241795 -0.09882,-0.153487 -0.09882,-0.346923 0,-0.18082 0.06728,-0.319589 0.06938,-0.140872 0.201846,-0.235487 0.134564,-0.09462 0.328,-0.142975 0.193436,-0.05046 0.441538,-0.05046 z m 2.247638,0.92723 v -1.084922 q 0,-0.121949 -0.04415,-0.210257 -0.04415,-0.08831 -0.134564,-0.136666 -0.08831,-0.04836 -0.222872,-0.04836 -0.124051,0 -0.214461,0.04205 -0.09041,0.04205 -0.140872,0.113538 -0.05046,0.07149 -0.05046,0.161898 h -0.504616 q 0,-0.134564 0.06518,-0.260718 0.06518,-0.126154 0.189231,-0.224974 0.124051,-0.09882 0.296461,-0.15559 0.17241,-0.05677 0.386872,-0.05677 0.256512,0 0.454153,0.0862 0.199744,0.0862 0.313282,0.260718 0.115641,0.17241 0.115641,0.433128 v 1.011333 q 0,0.155589 0.02103,0.279641 0.02313,0.121948 0.06518,0.212359 v 0.03364 h -0.519333 q -0.03574,-0.082 -0.05677,-0.208154 -0.01892,-0.128257 -0.01892,-0.248103 z m 0.07359,-0.92723 0.0042,0.313282 h -0.363744 q -0.140871,0 -0.248102,0.02733 -0.107231,0.02523 -0.178718,0.07569 -0.07149,0.05046 -0.107231,0.121949 -0.03574,0.07149 -0.03574,0.161898 0,0.09041 0.04205,0.166102 0.04205,0.07359 0.121949,0.115641 0.082,0.04205 0.197641,0.04205 0.155589,0 0.27123,-0.06308 0.117744,-0.06518 0.185026,-0.157692 0.06728,-0.09461 0.07149,-0.178718 l 0.164,0.224975 q -0.02523,0.0862 -0.0862,0.185025 -0.06097,0.09882 -0.159795,0.189231 -0.09672,0.08831 -0.233384,0.145077 -0.134565,0.05677 -0.31118,0.05677 -0.222872,0 -0.397384,-0.08831 -0.174513,-0.09041 -0.273334,-0.241795 -0.09882,-0.153487 -0.09882,-0.346923 0,-0.18082 0.06728,-0.319589 0.06938,-0.140872 0.201846,-0.235487 0.134564,-0.09462 0.328,-0.142975 0.193436,-0.05046 0.441538,-0.05046 z m 2.00795,-0.891487 v 0.370051 h -1.282564 v -0.370051 z m -0.912513,-0.557179 h 0.506718 v 2.203486 q 0,0.105128 0.02944,0.161898 0.03154,0.05467 0.0862,0.07359 0.05467,0.01892 0.128256,0.01892 0.05256,0 0.100923,-0.0063 0.04836,-0.0063 0.07779,-0.01262 l 0.0021,0.386872 q -0.06308,0.01892 -0.14718,0.03364 -0.082,0.01472 -0.18923,0.01472 -0.174513,0 -0.309077,-0.06097 -0.134564,-0.06308 -0.210257,-0.203949 -0.07569,-0.140872 -0.07569,-0.374256 z m 2.579846,2.216102 q 0,-0.07569 -0.03785,-0.136667 -0.03785,-0.06308 -0.145077,-0.113538 -0.105129,-0.05046 -0.31118,-0.09251 -0.18082,-0.03995 -0.332205,-0.09462 -0.149282,-0.05677 -0.256512,-0.136666 -0.107231,-0.0799 -0.166103,-0.189231 -0.05887,-0.109333 -0.05887,-0.252308 0,-0.138769 0.06097,-0.26282 0.06097,-0.124051 0.174512,-0.218667 0.113539,-0.09461 0.275436,-0.149282 0.164,-0.05467 0.365846,-0.05467 0.285949,0 0.489897,0.09672 0.206052,0.09462 0.315385,0.258615 0.109333,0.161897 0.109333,0.365846 h -0.506718 q 0,-0.09041 -0.04626,-0.168205 -0.04415,-0.0799 -0.134564,-0.128256 -0.09041,-0.05046 -0.227077,-0.05046 -0.130359,0 -0.216564,0.04205 -0.0841,0.03995 -0.126154,0.105128 -0.03995,0.06518 -0.03995,0.142975 0,0.05677 0.02103,0.103025 0.02313,0.04415 0.07569,0.082 0.05256,0.03574 0.142974,0.06728 0.09251,0.03154 0.231282,0.06097 0.260718,0.05467 0.447846,0.140871 0.189231,0.0841 0.290154,0.218667 0.100923,0.132462 0.100923,0.33641 0,0.151385 -0.06518,0.277539 -0.06308,0.124051 -0.185025,0.216564 -0.121949,0.09041 -0.292257,0.140871 -0.168205,0.05046 -0.378461,0.05046 -0.309077,0 -0.523538,-0.109333 -0.214462,-0.111436 -0.325898,-0.283846 -0.109333,-0.174513 -0.109333,-0.361641 h 0.489897 q 0.0084,0.140871 0.0778,0.224974 0.07149,0.082 0.176615,0.119846 0.107231,0.03574 0.22077,0.03574 0.136666,0 0.229179,-0.03574 0.09251,-0.03785 0.140872,-0.100923 0.04836,-0.06518 0.04836,-0.147179 z m 1.888102,-0.285949 h -0.468871 q 0.0021,-0.195538 0.03364,-0.328 0.03154,-0.134564 0.105128,-0.243897 0.07569,-0.109334 0.199743,-0.231282 0.09672,-0.09251 0.174513,-0.174513 0.0778,-0.0841 0.124051,-0.176615 0.04626,-0.09462 0.04626,-0.216564 0,-0.132462 -0.04415,-0.224975 -0.04415,-0.09251 -0.130359,-0.140871 -0.0841,-0.04836 -0.210256,-0.04836 -0.105128,0 -0.197641,0.04205 -0.09251,0.03995 -0.149282,0.126154 -0.05677,0.0841 -0.06098,0.222871 h -0.506717 q 0.0042,-0.264923 0.126153,-0.445743 0.121949,-0.18082 0.328,-0.271231 0.206052,-0.09041 0.460462,-0.09041 0.281743,0 0.481487,0.09672 0.199743,0.09461 0.304871,0.277538 0.107231,0.180821 0.107231,0.437334 0,0.185025 -0.07359,0.33641 -0.07359,0.149282 -0.191333,0.279641 -0.117743,0.128256 -0.25441,0.256512 -0.117744,0.107231 -0.159795,0.233385 -0.04205,0.124051 -0.04415,0.283846 z m -0.510923,0.656 q 0,-0.113539 0.07779,-0.191334 0.0778,-0.0799 0.212359,-0.0799 0.134564,0 0.212359,0.0799 0.07779,0.07779 0.07779,0.191334 0,0.113538 -0.07779,0.193436 -0.0778,0.07779 -0.212359,0.07779 -0.134564,0 -0.212359,-0.07779 -0.07779,-0.0799 -0.07779,-0.193436 z" id="path1" /><path style="font-weight:500;font-family:Roboto;-inkscape-font-specification:'Roboto Medium';stroke-width:0.308059;fill:#000000;fill-opacity:1" d="M 7.1593498,45.052553 H 8.24217 q 0.3490255,0 0.5950254,0.105128 0.2459999,0.105129 0.3763588,0.31118 0.1324615,0.203949 0.1324615,0.504615 0,0.229179 -0.084103,0.403692 -0.084103,0.174513 -0.2375897,0.294359 -0.1534871,0.117744 -0.365846,0.182923 l -0.1597948,0.0778 H 7.5251958 l -0.00421,-0.41841 h 0.7295895 q 0.1892307,0 0.3153845,-0.06728 0.1261538,-0.06728 0.1892307,-0.182923 0.065179,-0.117744 0.065179,-0.264923 0,-0.159795 -0.063077,-0.277539 Q 8.6963236,45.601322 8.5680673,45.538245 8.4398109,45.473066 8.24217,45.473066 H 7.6870932 v 2.64082 H 7.1593498 Z m 1.7472302,3.061333 -0.7190767,-1.375077 0.5529742,-0.0021 0.7295895,1.349845 v 0.02733 z m 1.915435,0.04205 q -0.252307,0 -0.456256,-0.082 -0.201846,-0.0841 -0.344821,-0.233385 -0.1408712,-0.149282 -0.2165635,-0.351128 -0.075692,-0.201846 -0.075692,-0.43523 v -0.0841 q 0,-0.267025 0.077795,-0.483589 0.077795,-0.216564 0.216564,-0.370052 0.138769,-0.155589 0.328,-0.237589 0.189231,-0.082 0.41,-0.082 0.243897,0 0.42682,0.082 0.182923,0.082 0.302769,0.231282 0.121949,0.147179 0.180821,0.351128 0.06097,0.203948 0.06097,0.449948 v 0.216564 H 9.9746821 V 46.76404 h 1.2573329 v -0.03995 q -0.0042,-0.136666 -0.05467,-0.256513 -0.04836,-0.119846 -0.149282,-0.193435 -0.100923,-0.07359 -0.269128,-0.07359 -0.126154,0 -0.224974,0.05467 -0.09672,0.05256 -0.161897,0.153487 -0.06518,0.100923 -0.100923,0.243897 -0.03364,0.140872 -0.03364,0.317487 v 0.0841 q 0,0.149282 0.03995,0.277538 0.04205,0.126154 0.121949,0.220769 0.0799,0.09462 0.193436,0.149282 0.113538,0.05256 0.258615,0.05256 0.182923,0 0.325897,-0.07359 0.142975,-0.07359 0.248103,-0.208154 l 0.267025,0.258615 q -0.07359,0.107231 -0.191333,0.206051 -0.117743,0.09672 -0.288051,0.157693 -0.168205,0.06097 -0.391077,0.06097 z m 2.579845,-0.658102 q 0,-0.07569 -0.03785,-0.136667 -0.03785,-0.06308 -0.145077,-0.113539 -0.105128,-0.05046 -0.311179,-0.09251 -0.180821,-0.03995 -0.332205,-0.09462 -0.149282,-0.05677 -0.256513,-0.136666 -0.107231,-0.0799 -0.166102,-0.189231 -0.05887,-0.109333 -0.05887,-0.252308 0,-0.138769 0.06097,-0.26282 0.06098,-0.124051 0.174513,-0.218667 0.113538,-0.09461 0.275436,-0.149282 0.164,-0.05467 0.365846,-0.05467 0.285948,0 0.489897,0.09672 0.206051,0.09461 0.315385,0.258615 0.109333,0.161897 0.109333,0.365846 h -0.506718 q 0,-0.09041 -0.04626,-0.168205 -0.04415,-0.0799 -0.134564,-0.128256 -0.09041,-0.05046 -0.227077,-0.05046 -0.130359,0 -0.216564,0.04205 -0.0841,0.03995 -0.126154,0.105128 -0.03995,0.06518 -0.03995,0.142975 0,0.05677 0.02103,0.103025 0.02313,0.04415 0.07569,0.082 0.05256,0.03574 0.142974,0.06728 0.09251,0.03154 0.231282,0.06097 0.260718,0.05467 0.447846,0.140871 0.189231,0.0841 0.290154,0.218667 0.100923,0.132462 0.100923,0.33641 0,0.151385 -0.06518,0.277539 -0.06308,0.124051 -0.185026,0.216564 -0.121948,0.09041 -0.292256,0.140871 -0.168205,0.05046 -0.378462,0.05046 -0.309076,0 -0.523538,-0.109333 -0.214461,-0.111436 -0.325897,-0.283846 -0.109333,-0.174513 -0.109333,-0.361641 h 0.489897 q 0.0084,0.140871 0.0778,0.224974 0.07149,0.082 0.176615,0.119846 0.107231,0.03574 0.220769,0.03574 0.136667,0 0.22918,-0.03574 0.09251,-0.03785 0.140871,-0.100923 0.04836,-0.06518 0.04836,-0.147179 z m 1.942769,0.658102 q -0.252307,0 -0.456256,-0.082 -0.201846,-0.0841 -0.34482,-0.233385 -0.140872,-0.149282 -0.216565,-0.351128 -0.07569,-0.201846 -0.07569,-0.43523 v -0.0841 q 0,-0.267025 0.0778,-0.483589 0.0778,-0.216564 0.216564,-0.370052 0.138769,-0.155589 0.328,-0.237589 0.189231,-0.082 0.41,-0.082 0.243897,0 0.42682,0.082 0.182923,0.082 0.302769,0.231282 0.121949,0.147179 0.180821,0.351128 0.06097,0.203948 0.06097,0.449948 v 0.216564 H 14.497296 V 46.76404 h 1.257333 v -0.03995 q -0.0042,-0.136666 -0.05467,-0.256513 -0.04836,-0.119846 -0.149282,-0.193435 -0.100923,-0.07359 -0.269128,-0.07359 -0.126154,0 -0.224974,0.05467 -0.09672,0.05256 -0.161897,0.153487 -0.06518,0.100923 -0.100923,0.243897 -0.03364,0.140872 -0.03364,0.317487 v 0.0841 q 0,0.149282 0.03995,0.277538 0.04205,0.126154 0.121949,0.220769 0.0799,0.09462 0.193436,0.149282 0.113538,0.05256 0.258615,0.05256 0.182923,0 0.325897,-0.07359 0.142975,-0.07359 0.248103,-0.208154 l 0.267025,0.258615 q -0.07359,0.107231 -0.191333,0.206051 -0.117743,0.09672 -0.288051,0.157693 -0.168205,0.06097 -0.391077,0.06097 z m 1.81241,-1.883897 v 1.841846 h -0.506718 v -2.274974 h 0.48359 z m 0.695949,-0.447846 -0.0042,0.470974 q -0.04626,-0.0084 -0.100923,-0.01261 -0.05256,-0.0042 -0.105128,-0.0042 -0.130359,0 -0.229179,0.03785 -0.09882,0.03574 -0.166103,0.105128 -0.06518,0.06728 -0.100923,0.164 -0.03574,0.09672 -0.04205,0.216564 l -0.115641,0.0084 q 0,-0.214461 0.04205,-0.397384 0.04205,-0.182923 0.126154,-0.321692 0.0862,-0.13877 0.214462,-0.216564 0.130359,-0.0778 0.300666,-0.0778 0.04626,0 0.09882,0.0084 0.05467,0.0084 0.082,0.01892 z m 1.095435,1.888102 0.557179,-1.873384 h 0.525641 l -0.790564,2.274974 h -0.328 z m -0.426821,-1.873384 0.567692,1.881794 0.02733,0.39318 h -0.328 l -0.794769,-2.274974 z m 2.798512,2.317025 q -0.252307,0 -0.456256,-0.082 -0.201846,-0.0841 -0.34482,-0.233385 -0.140872,-0.149282 -0.216564,-0.351128 -0.07569,-0.201846 -0.07569,-0.43523 v -0.0841 q 0,-0.267025 0.07779,-0.483589 0.07779,-0.216564 0.216564,-0.370052 0.13877,-0.155589 0.328,-0.237589 0.189231,-0.082 0.41,-0.082 0.243897,0 0.426821,0.082 0.182923,0.082 0.302769,0.231282 0.121948,0.147179 0.18082,0.351128 0.06097,0.203948 0.06097,0.449948 v 0.216564 H 20.472781 V 46.76404 h 1.257333 v -0.03995 q -0.0042,-0.136666 -0.05467,-0.256513 -0.04836,-0.119846 -0.149282,-0.193435 -0.100923,-0.07359 -0.269128,-0.07359 -0.126154,0 -0.224975,0.05467 -0.09672,0.05256 -0.161897,0.153487 -0.06518,0.100923 -0.100923,0.243897 -0.03364,0.140872 -0.03364,0.317487 v 0.0841 q 0,0.149282 0.03995,0.277538 0.04205,0.126154 0.121948,0.220769 0.0799,0.09462 0.193436,0.149282 0.113538,0.05256 0.258615,0.05256 0.182923,0 0.325898,-0.07359 0.142974,-0.07359 0.248102,-0.208154 l 0.267026,0.258615 q -0.07359,0.107231 -0.191334,0.206051 -0.117743,0.09672 -0.288051,0.157693 -0.168205,0.06097 -0.391077,0.06097 z m 2.306512,0 q -0.252307,0 -0.456256,-0.082 -0.201846,-0.0841 -0.34482,-0.233385 -0.140872,-0.149282 -0.216564,-0.351128 -0.07569,-0.201846 -0.07569,-0.43523 v -0.0841 q 0,-0.267025 0.07779,-0.483589 0.0778,-0.216564 0.216564,-0.370052 0.138769,-0.155589 0.328,-0.237589 0.189231,-0.082 0.41,-0.082 0.243897,0 0.42682,0.082 0.182923,0.082 0.30277,0.231282 0.121948,0.147179 0.18082,0.351128 0.06097,0.203948 0.06097,0.449948 v 0.216564 H 22.779293 V 46.76404 h 1.257333 v -0.03995 q -0.0042,-0.136666 -0.05467,-0.256513 -0.04836,-0.119846 -0.149282,-0.193435 -0.100923,-0.07359 -0.269129,-0.07359 -0.126153,0 -0.224974,0.05467 -0.09672,0.05256 -0.161897,0.153487 -0.06518,0.100923 -0.100923,0.243897 -0.03364,0.140872 -0.03364,0.317487 v 0.0841 q 0,0.149282 0.03995,0.277538 0.04205,0.126154 0.121949,0.220769 0.0799,0.09462 0.193436,0.149282 0.113538,0.05256 0.258615,0.05256 0.182923,0 0.325898,-0.07359 0.142974,-0.07359 0.248102,-0.208154 l 0.267026,0.258615 q -0.07359,0.107231 -0.191334,0.206051 -0.117743,0.09672 -0.288051,0.157693 -0.168205,0.06097 -0.391077,0.06097 z m 1.81241,-1.883897 v 1.841846 h -0.506718 v -2.274974 h 0.48359 z m 0.695948,-0.447846 -0.0042,0.470974 q -0.04626,-0.0084 -0.100923,-0.01261 -0.05256,-0.0042 -0.105128,-0.0042 -0.130359,0 -0.229179,0.03785 -0.09882,0.03574 -0.166103,0.105128 -0.06518,0.06728 -0.100923,0.164 -0.03574,0.09672 -0.04205,0.216564 l -0.115641,0.0084 q 0,-0.214461 0.04205,-0.397384 0.04205,-0.182923 0.126154,-0.321692 0.0862,-0.13877 0.214461,-0.216564 0.130359,-0.0778 0.300667,-0.0778 0.04626,0 0.09882,0.0084 0.05467,0.0084 0.082,0.01892 z m 2.775384,1.818717 v -2.758563 h 0.50882 v 3.229538 H 28.958727 Z M 27.430163,47.00163 v -0.04415 q 0,-0.258616 0.06097,-0.470974 0.06097,-0.214462 0.176615,-0.367949 0.115641,-0.15559 0.281743,-0.23759 0.166103,-0.0841 0.374257,-0.0841 0.206051,0 0.361641,0.0799 0.155589,0.0799 0.264923,0.22918 0.109333,0.147179 0.174512,0.35323 0.06518,0.203949 0.09251,0.454154 v 0.140872 q -0.02733,0.243897 -0.09251,0.445743 -0.06518,0.201846 -0.174512,0.349026 -0.109334,0.147179 -0.267026,0.227076 -0.15559,0.0799 -0.363743,0.0799 -0.206052,0 -0.372154,-0.0862 -0.164,-0.0862 -0.279641,-0.241795 -0.115641,-0.15559 -0.176615,-0.365846 -0.06097,-0.212359 -0.06097,-0.460461 z m 0.506718,-0.04415 v 0.04415 q 0,0.155589 0.02733,0.290153 0.02944,0.134564 0.09041,0.23759 0.06097,0.100923 0.157692,0.159795 0.09882,0.05677 0.235487,0.05677 0.17241,0 0.283846,-0.07569 0.111436,-0.07569 0.174513,-0.203949 0.06518,-0.130359 0.08831,-0.290154 v -0.380564 q -0.01262,-0.124051 -0.05257,-0.231282 -0.03785,-0.10723 -0.103025,-0.187128 -0.06518,-0.082 -0.161898,-0.126154 -0.09462,-0.04626 -0.224974,-0.04626 -0.138769,0 -0.235487,0.05887 -0.09672,0.05887 -0.159795,0.161897 -0.06097,0.103026 -0.09041,0.239692 -0.02944,0.136667 -0.02944,0.292257 z m 3.015077,1.198461 q -0.252308,0 -0.456256,-0.082 -0.201846,-0.0841 -0.344821,-0.233385 -0.140871,-0.149282 -0.216564,-0.351128 -0.07569,-0.201846 -0.07569,-0.43523 v -0.0841 q 0,-0.267025 0.07779,-0.483589 0.0778,-0.216564 0.216564,-0.370052 0.138769,-0.155589 0.328,-0.237589 0.189231,-0.082 0.41,-0.082 0.243897,0 0.42682,0.082 0.182923,0.082 0.302769,0.231282 0.121949,0.147179 0.180821,0.351128 0.06097,0.203948 0.06097,0.449948 v 0.216564 H 30.104625 V 46.76404 h 1.257333 v -0.03995 q -0.0042,-0.136666 -0.05467,-0.256513 -0.04836,-0.119846 -0.149282,-0.193435 -0.100923,-0.07359 -0.269128,-0.07359 -0.126154,0 -0.224974,0.05467 -0.09672,0.05256 -0.161898,0.153487 -0.06518,0.100923 -0.100923,0.243897 -0.03364,0.140872 -0.03364,0.317487 v 0.0841 q 0,0.149282 0.03995,0.277538 0.04205,0.126154 0.121949,0.220769 0.0799,0.09462 0.193436,0.149282 0.113538,0.05256 0.258615,0.05256 0.182923,0 0.325897,-0.07359 0.142975,-0.07359 0.248103,-0.208154 l 0.267025,0.258615 q -0.07359,0.107231 -0.191333,0.206051 -0.117744,0.09672 -0.288051,0.157693 -0.168205,0.06097 -0.391077,0.06097 z m 3.063434,-0.445744 v 0.403693 h -1.694666 v -0.403693 z m -0.04626,-1.555896 -1.475999,1.959589 h -0.328 v -0.325898 l 1.467589,-1.949076 h 0.33641 z m -0.195538,-0.315385 v 0.403692 h -1.58323 v -0.403692 z m 1.616872,2.317025 q -0.252308,0 -0.456256,-0.082 -0.201846,-0.0841 -0.344821,-0.233385 -0.140871,-0.149282 -0.216564,-0.351128 -0.07569,-0.201846 -0.07569,-0.43523 v -0.0841 q 0,-0.267025 0.07779,-0.483589 0.0778,-0.216564 0.216564,-0.370052 0.138769,-0.155589 0.328,-0.237589 0.18923,-0.082 0.41,-0.082 0.243897,0 0.42682,0.082 0.182923,0.082 0.302769,0.231282 0.121949,0.147179 0.180821,0.351128 0.06097,0.203948 0.06097,0.449948 v 0.216564 H 34.543136 V 46.76404 h 1.257333 v -0.03995 q -0.0042,-0.136666 -0.05467,-0.256513 -0.04836,-0.119846 -0.149282,-0.193435 -0.100923,-0.07359 -0.269128,-0.07359 -0.126154,0 -0.224974,0.05467 -0.09672,0.05256 -0.161898,0.153487 -0.06518,0.100923 -0.100923,0.243897 -0.03364,0.140872 -0.03364,0.317487 v 0.0841 q 0,0.149282 0.03995,0.277538 0.04205,0.126154 0.121949,0.220769 0.0799,0.09462 0.193436,0.149282 0.113538,0.05256 0.258615,0.05256 0.182923,0 0.325897,-0.07359 0.142974,-0.07359 0.248103,-0.208154 l 0.267025,0.258615 q -0.07359,0.107231 -0.191333,0.206051 -0.117744,0.09672 -0.288051,0.157693 -0.168205,0.06097 -0.391077,0.06097 z m 2.882614,-1.879692 v 2.712307 h -0.506718 v -3.14964 h 0.466769 z m 1.482307,0.679128 v 0.04415 q 0,0.248102 -0.05887,0.460461 -0.05677,0.210257 -0.170308,0.367949 -0.111436,0.15559 -0.275436,0.241795 -0.164,0.0862 -0.378461,0.0862 -0.212359,0 -0.372154,-0.0778 -0.157692,-0.0799 -0.267026,-0.224974 -0.109333,-0.145077 -0.176615,-0.340616 -0.06518,-0.19764 -0.09251,-0.433128 v -0.170307 q 0.02733,-0.250205 0.09251,-0.454154 0.06728,-0.203949 0.176615,-0.351128 0.109334,-0.147179 0.267026,-0.227077 0.157692,-0.0799 0.367949,-0.0799 0.214461,0 0.380564,0.0841 0.166102,0.082 0.279641,0.235487 0.113538,0.151385 0.170307,0.365846 0.05677,0.212359 0.05677,0.473077 z m -0.506717,0.04415 v -0.04415 q 0,-0.157692 -0.02944,-0.292256 -0.02944,-0.136667 -0.09251,-0.239692 -0.06308,-0.103026 -0.161897,-0.159795 -0.09672,-0.05887 -0.233385,-0.05887 -0.134564,0 -0.231282,0.04626 -0.09672,0.04415 -0.161897,0.124052 -0.06518,0.0799 -0.100923,0.187128 -0.03574,0.105128 -0.05046,0.229179 v 0.407898 q 0.02523,0.151384 0.0862,0.277538 0.06097,0.126154 0.17241,0.201846 0.113539,0.07359 0.290154,0.07359 0.136667,0 0.233385,-0.05887 0.09672,-0.05887 0.157692,-0.161897 0.06308,-0.105129 0.09251,-0.241795 0.02944,-0.136667 0.02944,-0.290154 z m 1.478101,-2.115179 v 3.229538 h -0.508821 v -3.229538 z m 1.557999,3.271589 q -0.252307,0 -0.456256,-0.082 -0.201846,-0.0841 -0.34482,-0.233385 -0.140872,-0.149282 -0.216564,-0.351128 -0.07569,-0.201846 -0.07569,-0.43523 v -0.0841 q 0,-0.267025 0.0778,-0.483589 0.07779,-0.216564 0.216564,-0.370052 0.138769,-0.155589 0.328,-0.237589 0.189231,-0.082 0.41,-0.082 0.243897,0 0.42682,0.082 0.182923,0.082 0.302769,0.231282 0.121949,0.147179 0.180821,0.351128 0.06097,0.203948 0.06097,0.449948 v 0.216564 H 41.43744 V 46.76404 h 1.257333 v -0.03995 q -0.0042,-0.136666 -0.05467,-0.256513 -0.04836,-0.119846 -0.149282,-0.193435 -0.100923,-0.07359 -0.269128,-0.07359 -0.126153,0 -0.224974,0.05467 -0.09672,0.05256 -0.161897,0.153487 -0.06518,0.100923 -0.100923,0.243897 -0.03364,0.140872 -0.03364,0.317487 v 0.0841 q 0,0.149282 0.03995,0.277538 0.04205,0.126154 0.121949,0.220769 0.0799,0.09462 0.193436,0.149282 0.113538,0.05256 0.258615,0.05256 0.182923,0 0.325897,-0.07359 0.142975,-0.07359 0.248103,-0.208154 l 0.267025,0.258615 q -0.07359,0.107231 -0.191333,0.206051 -0.117743,0.09672 -0.288051,0.157693 -0.168205,0.06097 -0.391077,0.06097 z m 1.814515,-3.271589 v 3.229538 h -0.50882 v -3.229538 z m 1.412923,0.954564 -0.990308,1.097538 -0.542461,0.555077 -0.132461,-0.428923 0.409999,-0.506718 0.643385,-0.716974 z m -0.502513,2.274974 -0.738,-1.068103 0.31959,-0.355333 1.005025,1.423436 z m 2.401127,-1.81241 v 1.81241 h -0.506717 v -2.274974 h 0.477282 z m -0.082,0.59082 -0.172411,-0.0021 q 0,-0.235487 0.05887,-0.435231 0.05887,-0.199743 0.17241,-0.346923 0.113539,-0.149282 0.281744,-0.229179 0.170307,-0.082 0.393179,-0.082 0.15559,0 0.283846,0.04626 0.130359,0.04415 0.224974,0.140872 0.09672,0.09672 0.14718,0.248102 0.05256,0.151385 0.05256,0.365846 v 1.515949 h -0.506718 v -1.471795 q 0,-0.166102 -0.05046,-0.260718 -0.04836,-0.09462 -0.140872,-0.134564 -0.09041,-0.04205 -0.216564,-0.04205 -0.142974,0 -0.243897,0.05467 -0.09882,0.05467 -0.161898,0.149282 -0.06308,0.09461 -0.09251,0.218666 -0.02943,0.124052 -0.02943,0.264923 z m 1.41082,-0.134564 -0.23759,0.05256 q 0,-0.206051 0.05677,-0.388974 0.05887,-0.185025 0.170308,-0.323795 0.113538,-0.140871 0.279641,-0.220769 0.166102,-0.0799 0.380564,-0.0799 0.174512,0 0.311179,0.04836 0.138769,0.04626 0.235487,0.147179 0.09672,0.100923 0.14718,0.262821 0.05046,0.159794 0.05046,0.386871 v 1.471795 h -0.50882 v -1.473897 q 0,-0.172411 -0.05046,-0.267026 -0.04836,-0.09461 -0.138769,-0.130359 -0.09041,-0.03785 -0.216564,-0.03785 -0.117744,0 -0.208154,0.04415 -0.08831,0.04205 -0.149282,0.119846 -0.06097,0.07569 -0.09251,0.174513 -0.02943,0.09882 -0.02943,0.214461 z m 2.918357,1.398205 q -0.252307,0 -0.456256,-0.082 -0.201846,-0.0841 -0.34482,-0.233385 -0.140872,-0.149282 -0.216564,-0.351128 -0.07569,-0.201846 -0.07569,-0.43523 v -0.0841 q 0,-0.267025 0.0778,-0.483589 0.0778,-0.216564 0.216564,-0.370052 0.138769,-0.155589 0.328,-0.237589 0.189231,-0.082 0.41,-0.082 0.243897,0 0.42682,0.082 0.182923,0.082 0.302769,0.231282 0.121949,0.147179 0.180821,0.351128 0.06097,0.203948 0.06097,0.449948 v 0.216564 H 50.81067 V 46.76404 h 1.257333 v -0.03995 q -0.0042,-0.136666 -0.05467,-0.256513 -0.04836,-0.119846 -0.149282,-0.193435 -0.100923,-0.07359 -0.269128,-0.07359 -0.126154,0 -0.224974,0.05467 -0.09672,0.05256 -0.161897,0.153487 -0.06518,0.100923 -0.100923,0.243897 -0.03364,0.140872 -0.03364,0.317487 v 0.0841 q 0,0.149282 0.03995,0.277538 0.04205,0.126154 0.121949,0.220769 0.0799,0.09462 0.193436,0.149282 0.113538,0.05256 0.258615,0.05256 0.182923,0 0.325897,-0.07359 0.142975,-0.07359 0.248103,-0.208154 l 0.267025,0.258615 q -0.07359,0.107231 -0.191333,0.206051 -0.117743,0.09672 -0.288051,0.157693 -0.168205,0.06097 -0.391077,0.06097 z m 2.34646,-2.317025 v 0.370051 H 52.721899 V 45.838912 Z M 53.09195,45.281733 h 0.506718 v 2.203486 q 0,0.105128 0.02944,0.161898 0.03154,0.05467 0.0862,0.07359 0.05467,0.01892 0.128256,0.01892 0.05257,0 0.100923,-0.0063 0.04836,-0.0063 0.07779,-0.01262 l 0.0021,0.386872 q -0.06308,0.01892 -0.14718,0.03364 -0.082,0.01472 -0.18923,0.01472 -0.174513,0 -0.309077,-0.06097 -0.134564,-0.06308 -0.210256,-0.203949 -0.07569,-0.140872 -0.07569,-0.374256 z m 3.572257,1.448666 h -0.780051 l -0.0042,-0.384769 h 0.68123 q 0.17241,0 0.292256,-0.05046 0.121949,-0.05256 0.185026,-0.149282 0.06308,-0.09882 0.06308,-0.237589 0,-0.153488 -0.05887,-0.250205 -0.05887,-0.09672 -0.18082,-0.140872 -0.119846,-0.04415 -0.306975,-0.04415 h -0.510922 v 2.64082 h -0.527744 v -3.061333 h 1.038666 q 0.252308,0 0.449949,0.04836 0.199744,0.04836 0.338513,0.151385 0.140871,0.100923 0.212359,0.256513 0.07359,0.155589 0.07359,0.370051 0,0.18923 -0.09041,0.346923 -0.09041,0.155589 -0.267025,0.25441 -0.176616,0.09882 -0.439436,0.117743 z m -0.02313,1.383487 h -0.923026 l 0.23759,-0.418411 h 0.685436 q 0.178717,0 0.298564,-0.05887 0.119846,-0.06097 0.178717,-0.166103 0.06097,-0.107231 0.06097,-0.250205 0,-0.149282 -0.05256,-0.258615 -0.05256,-0.111436 -0.166103,-0.170308 -0.113538,-0.06097 -0.296461,-0.06097 h -0.592923 l 0.0042,-0.384769 h 0.771641 l 0.119846,0.145077 q 0.252307,0.0084 0.414205,0.111436 0.164,0.103025 0.243897,0.267025 0.0799,0.164 0.0799,0.353231 0,0.292256 -0.128257,0.489897 -0.126154,0.197641 -0.363743,0.300667 -0.23759,0.100923 -0.571897,0.100923 z m 2.785894,-2.653435 -0.914615,2.653435 h -0.552974 l 1.152205,-3.061333 h 0.35323 z m 0.765333,2.653435 -0.916717,-2.653435 -0.03995,-0.407898 h 0.355333 l 1.15641,3.061333 z m -0.04415,-1.135385 v 0.41841 h -1.66523 v -0.41841 z m 0.94195,-1.925948 h 1.08282 q 0.349025,0 0.595025,0.105128 0.246,0.105129 0.376359,0.31118 0.132462,0.203949 0.132462,0.504615 0,0.229179 -0.0841,0.403692 -0.0841,0.174513 -0.23759,0.294359 -0.153487,0.117744 -0.365846,0.182923 l -0.159795,0.0778 h -0.973486 l -0.0042,-0.41841 h 0.729589 q 0.189231,0 0.315385,-0.06728 0.126153,-0.06728 0.18923,-0.182923 0.06518,-0.117744 0.06518,-0.264923 0,-0.159795 -0.06308,-0.277539 -0.06097,-0.119846 -0.189231,-0.182923 -0.128256,-0.06518 -0.325897,-0.06518 h -0.555077 v 2.64082 h -0.527743 z m 1.74723,3.061333 -0.719077,-1.375077 0.552974,-0.0021 0.72959,1.349845 v 0.02733 z m 2.077372,-3.061333 v 3.061333 h -0.523539 v -3.061333 z m 0.960871,0 v 0.420513 h -2.436871 v -0.420513 z m 0.937745,0 -0.05046,2.159333 H 66.32973 l -0.05256,-2.159333 z m -0.550872,2.82164 q 0,-0.115641 0.07569,-0.193435 0.0778,-0.0799 0.214462,-0.0799 0.134564,0 0.212359,0.0799 0.07779,0.07779 0.07779,0.193435 0,0.111436 -0.07779,0.191334 -0.07779,0.07779 -0.212359,0.07779 -0.136667,0 -0.214462,-0.07779 -0.07569,-0.0799 -0.07569,-0.191334 z" id="path2" /></g><path style="fill:#000000" id="path6" d="" /></g><g inkscape:groupmode="layer" id="layer2" inkscape:label="To change" style="display:inline"><text xml:space="preserve" style="font-style:normal;font-variant:normal;font-weight:normal;font-stretch:normal;font-size:29.1042px;font-family:'Roboto Slab';-inkscape-font-specification:'Roboto Slab';text-align:center;writing-mode:lr-tb;direction:ltr;text-anchor:middle;fill:#000000;stroke-width:0.264999;stroke-linecap:round" x="36.311554" y="33.434895" id="text2" inkscape:label="number"><tspan ns2:role="line" id="tspan2" style="font-style:normal;font-variant:normal;font-weight:900;font-stretch:normal;font-size:29.1042px;font-family:Roboto;-inkscape-font-specification:'Roboto Heavy';stroke-width:0.265" x="36.311554" y="33.434895">3</tspan></text><image width="32.107243" height="32.107243" preserveAspectRatio="none" xlink:href="qr-code-03.png" id="image1" x="20.946379" y="52.68784" inkscape:label="qr-code" /></g></svg>