<?xml version='1.0' encoding='utf-8'?>
<svg xmlns="http://www.w3.org/2000/svg" xmlns:inkscape="http://www.inkscape.org/namespaces/inkscape" xmlns:ns2="http://sodipodi.sourceforge.net/DTD/sodipodi-0.dtd" xmlns:xlink="http://www.w3.org/1999/xlink" width="74mm" height="105mm" viewBox="0 0 74 105" version="1.1" id="svg1" inkscape:version="1.4.3 (0d15f75, 2025-12-25)" ns2:docname="kaart.svg" xml:space="preserve" inkscape:export-filename="kaart.png" inkscape:export-xdpi="96" inkscape:export-ydpi="96"><ns2:namedview id="namedview1" pagecolor="#ffffff" bordercolor="#000000" borderopacity="0.25" inkscape:showpageshadow="2" inkscape:pageopacity="0.0" inkscape:pagecheckerboard="0" inkscape:deskcolor="#d1d1d1" inkscape:document-units="mm" inkscape:zoom="2.2520763" inkscape:cx="157.85433" inkscape:cy="198.92754" inkscape:window-width="2560" inkscape:window-height="1566" inkscape:window-x="-11" inkscape:window-y="1789" inkscape:window-maximized="1" inkscape:current-layer="layer2" showguides="true" /><defs id="defs1" /><rect style="fill:#ffffff;fill-opacity:1;stroke-width:1.06814;stroke-linecap:round" id="rect15" width="74" height="105.00001" x="4.4408921e-16" y="2.9465034e-06" inkscape:label="wit" ns2:insensitive="true" /><rect style="fill:#c22522;fill-opacity:0.0822072;stroke-width:0.264999;stroke-linecap:round" id="rect1" width="73.999992" height="105" x="0" y="0" inkscape:label="roos" ns2:insensitive="true" /><g inkscape:label="Achtergrond" inkscape:groupmode="layer" id="layer1" ns2:insensitive="true"><rect style="display:inline;fill:#c22522;fill-opacity:1;stroke-width:0.265296;stroke-linecap:round" id="rect6" width="73.999992" height="15.03367" x="3.8146973e-06" y="89.966339" /><path style="font-weight:800;font-size:11.4277px;font-family:'FR Kraken Slab';-inkscape-font-specification:'FR Kraken Slab Ultra-Bold';text-align:center;text-anchor:middle;fill:#ffffff;stroke-width:0.317934;stroke-linecap:round" d="m 12.030486,101.32859 h 5.988115 c 2.114124,0 3.074051,-0.77708 3.074051,-2.114124 0,-1.188481 -0.754228,-1.6913 -2.319823,-1.817004 v -0.319976 c 1.43989,-0.14856 1.976992,-0.628524 1.976992,-1.679872 0,-1.257047 -0.99421,-1.931281 -2.856925,-1.931281 h -5.86241 v 1.782721 h 0.822794 c 0.06857,0 0.114277,0.04571 0.114277,0.114277 v 4.068261 c 0,0.06857 -0.04571,0.114277 -0.114277,0.114277 h -0.822794 z m 3.622581,-4.61679 v -1.462746 h 1.519884 c 0.594241,0 0.914216,0.251409 0.914216,0.731373 0,0.468535 -0.319975,0.731373 -0.914216,0.731373 z m 0,2.834069 v -1.565595 h 1.577023 c 0.639951,0 0.99421,0.285693 0.99421,0.788512 0,0.502818 -0.354259,0.777083 -0.99421,0.777083 z m 8.319379,1.954141 c 1.177053,0 1.794149,-0.53711 1.794149,-1.714159 h 0.29712 v 0.02286 c 0,1.062779 0.628523,1.691309 2.28554,1.691309 1.817004,0 2.594088,-0.69709 2.594088,-1.988429 V 96.620383 H 29.21776 v 2.696937 c 0,0.331403 -0.07999,0.502819 -0.399969,0.502819 -0.331404,0 -0.422825,-0.171416 -0.422825,-0.502819 v -2.514094 c 0,-1.062776 -0.491391,-1.691299 -1.851288,-1.691299 -1.325613,0 -1.805576,0.354258 -1.828432,1.611305 h -0.308548 l -0.102849,-1.43989 h -1.896998 v 2.251257 h 2.022703 v -0.04571 c 0,-0.559957 0.239982,-0.788511 0.765656,-0.788511 0.525674,0 0.754228,0.262837 0.754228,0.788511 v 0.342831 h -0.891361 c -2.125552,0 -3.062623,0.559957 -3.062623,1.908426 0,1.154204 0.777083,1.759874 1.976992,1.759874 z m 0.925644,-1.40561 c -0.434253,0 -0.651379,-0.251411 -0.651379,-0.639952 0,-0.434253 0.331403,-0.674235 1.085631,-0.674235 h 0.617096 v 0.228554 c 0,0.639951 -0.388542,1.085633 -1.051348,1.085633 z m 6.719478,1.23419 h 6.5595 v -2.776931 h -1.577023 l -0.114277,1.211336 c -0.01143,0.09142 -0.05714,0.137133 -0.14856,0.148561 l -1.98842,0.07999 v -0.228554 l 3.599726,-3.039768 v -1.43989 h -6.319518 v 2.559805 h 1.577022 l 0.10285,-1.005638 c 0.01143,-0.102849 0.06857,-0.137132 0.159987,-0.14856 l 1.725583,-0.07999 v 0.228554 l -3.57687,3.039768 z m 9.416412,0.17142 c 1.177053,0 1.794149,-0.53711 1.794149,-1.714159 h 0.29712 v 0.02286 c 0,1.062779 0.628523,1.691309 2.28554,1.691309 1.817004,0 2.594088,-0.69709 2.594088,-1.988429 v -2.891208 h -1.725583 v 2.696937 c 0,0.331403 -0.07999,0.502819 -0.399969,0.502819 -0.331404,0 -0.422825,-0.171416 -0.422825,-0.502819 v -2.514094 c 0,-1.062776 -0.491391,-1.691299 -1.851288,-1.691299 -1.325613,0 -1.805576,0.354258 -1.828432,1.611305 h -0.308548 l -0.102849,-1.43989 h -1.896998 v 2.251257 h 2.022703 v -0.04571 c 0,-0.559957 0.239981,-0.788511 0.765656,-0.788511 0.525674,0 0.754228,0.262837 0.754228,0.788511 v 0.342831 h -0.891361 c -2.125552,0 -3.062623,0.559957 -3.062623,1.908426 0,1.154204 0.777083,1.759874 1.976992,1.759874 z m 0.925643,-1.40561 c -0.434252,0 -0.651378,-0.251411 -0.651378,-0.639952 0,-0.434253 0.331403,-0.674235 1.085631,-0.674235 h 0.617096 v 0.228554 c 0,0.639951 -0.388542,1.085633 -1.051349,1.085633 z m 6.673776,1.23419 h 4.216822 v -1.611305 h -0.914216 c -0.06857,0 -0.125705,-0.04571 -0.125705,-0.114277 v -1.885571 c 0,-0.582813 0.262837,-0.99421 0.834222,-0.99421 0.468536,0 0.708517,0.274265 0.708517,0.731373 v 1.222764 H 55.09005 V 96.7118 c 0,-0.959927 -0.44568,-1.599878 -1.485601,-1.599878 -1.028493,0 -1.519884,0.617095 -1.577023,1.782721 h -0.331403 v -1.611306 h -3.062624 v 1.599878 h 0.617096 c 0.06857,0 0.114277,0.04571 0.114277,0.114277 v 2.605516 c 0,0.06857 -0.04571,0.114277 -0.114277,0.114277 h -0.617096 z m 10.616323,0.17142 c 1.828432,0 2.719792,-0.7428 2.719792,-2.274116 v -1.154198 h -1.714155 v 1.199908 c 0,0.434253 -0.159988,0.708518 -0.59424,0.708518 -0.457108,0 -0.617096,-0.274265 -0.617096,-0.708518 v -2.388389 h 2.639799 v -1.599878 h -2.639799 v -1.817004 h -2.216974 l -0.07999,1.645589 c -0.01143,0.114277 -0.06857,0.171415 -0.182843,0.171415 h -0.99421 v 1.599878 h 1.028493 v 2.342679 c 0,1.531316 0.857078,2.274116 2.651227,2.274116 z" id="text4" inkscape:label="Bazart" aria-label="Bazart" /><text xml:space="preserve" style="font-size:5.29167px;font-family:'JetBrainsMono Nerd Font Propo';-inkscape-font-specification:'JetBrainsMono Nerd Font Propo';text-align:center;writing-mode:lr-tb;direction:ltr;text-anchor:middle;fill:#000000;stroke-width:0.264999;stroke-linecap:round" x="36.943157" y="9.8059435" id="text1"><tspan ns2:role="line" id="tspan1" style="font-style:normal;font-variant:normal;font-weight:normal;font-stretch:normal;font-size:5.29167px;font-family:Roboto;-inkscape-font-specification:Roboto;stroke-width:0.265" x="36.943157" y="9.8059435">OPEK - Garage</tspan></text><text xml:space="preserve" style="font-style:normal;font-variant:normal;font-weight:900;font-stretch:normal;font-size:4.30605px;font-family:'Roboto Slab';-inkscape-font-specification:'Roboto Slab Heavy';text-align:center;writing-mode:lr-tb;direction:ltr;text-anchor:middle;fill:#000000;stroke-width:0.308058;stroke-linecap:round" x="36.977924" y="45.300983" id="text3"><tspan ns2:role="line" style="font-style:normal;font-variant:normal;font-weight:normal;font-stretch:normal;font-size:4.30605px;font-family:Roboto;-inkscape-font-specification:Roboto;stroke-width:0.308059" x="36.977924" y="45.300983" id="tspan4">Wil je zeker zijn van je plaats?</tspan><tspan ns2:role="line" style="font-style:normal;font-variant:normal;font-weight:normal;font-stretch:normal;font-size:4.30605px;font-family:Roboto;-inkscape-font-specification:Roboto;stroke-width:0.308059" x="36.977924" y="50.875252" id="tspan5">Reserveer deze plek met BART!</tspan></text><path style="fill:#000000" id="path6" d="" /></g><g inkscape:groupmode="layer" id="layer2" inkscape:label="To change" style="display:inline"><text xml:space="preserve" style="font-style:normal;font-variant:normal;font-weight:normal;font-stretch:normal;font-size:31.75px;font-family:'Roboto Slab';-inkscape-font-specification:'Roboto Slab';text-align:center;writing-mode:lr-tb;direction:ltr;text-anchor:middle;fill:#000000;stroke-width:0.264999;stroke-linecap:round" x="38.42627" y="37.020603" id="text2" inkscape:label="number"><tspan ns2:role="line" id="tspan2" style="font-style:normal;font-variant:normal;font-weight:900;font-stretch:normal;font-size:31.75px;font-family:Roboto;-inkscape-font-specification:'Roboto Heavy';stroke-width:0.265" x="38.42627" y="37.020603">10</tspan></text><image width="38.216419" height="38.216419" preserveAspectRatio="none" xlink:href="qr-code-10.png" id="image1" x="17.89179" y="51.74992" inkscape:label="qr-code" /></g></svg>